STARTFONT 2.1
COMMENT
COMMENT Converted from OpenType font "FreeUniversal-Bold.ttf" by "otf2bdf 3.0".
COMMENT
FONT -FreeType-FreeUniversal-Bold-R-Normal--49-490-72-72-P-242-ISO10646-1
SIZE 49 72 72
FONTBOUNDINGBOX 72 65 -4 -13
STARTPROPERTIES 19
FOUNDRY "FreeType"
FAMILY_NAME "FreeUniversal"
WEIGHT_NAME "Bold"
SLANT "R"
SETWIDTH_NAME "Normal"
ADD_STYLE_NAME ""
PIXEL_SIZE 49
POINT_SIZE 490
RESOLUTION_X 72
RESOLUTION_Y 72
SPACING "P"
AVERAGE_WIDTH 242
CHARSET_REGISTRY "ISO10646"
CHARSET_ENCODING "1"
FONT_ASCENT 51
FONT_DESCENT 12
COPYRIGHT "FreeUniveral (c) Stephen Wilson 2009    Original Font Sil-Sophia  Copyright (c) SIL International, 1994-2008."
_OTF_FONTFILE "FreeUniversal-Bold.ttf"
_OTF_PSNAME "FreeUniversal-Bold"
ENDPROPERTIES
CHARS 243
STARTCHAR 0020
ENCODING 32
SWIDTH 306 0
DWIDTH 15 0
BBX 0 0 0 0
BITMAP
ENDCHAR
STARTCHAR 0021
ENCODING 33
SWIDTH 408 0
DWIDTH 20 0
BBX 7 35 7 0
BITMAP
FE
FE
FE
FE
FE
FE
FE
FE
FE
FE
FE
FE
FE
FE
FE
FE
FE
FE
FE
FE
FE
FE
FE
FE
FE
FE
00
00
00
FE
FE
FE
FE
FE
FE
ENDCHAR
STARTCHAR 0022
ENCODING 34
SWIDTH 510 0
DWIDTH 25 0
BBX 19 14 3 21
BITMAP
FF0FE0
7F0FE0
7F0FE0
7E0FE0
7E0FE0
7E0FE0
7E0FC0
7E0FC0
7E0FC0
7E07C0
7E07C0
7E07C0
3E07C0
3E07C0
ENDCHAR
STARTCHAR 0023
ENCODING 35
SWIDTH 714 0
DWIDTH 35 0
BBX 31 35 2 0
BITMAP
0007C1F0
000F81F0
000F81F0
000F81E0
001F03E0
001F03E0
001F03E0
003E07C0
003E07C0
07FFFFFE
07FFFFFC
0FFFFFFC
0FFFFFFC
007C0F80
00F81F00
00F81F00
00F81F00
00F03E00
01F03E00
01F03E00
01F07C00
7FFFFFE0
7FFFFFE0
7FFFFFC0
FFFFFFC0
07C0F800
07C0F800
0781F000
0F81F000
0F81F000
0F81E000
1F03E000
1F03E000
1F03E000
3E07C000
ENDCHAR
STARTCHAR 0024
ENCODING 36
SWIDTH 571 0
DWIDTH 28 0
BBX 26 44 1 -5
BITMAP
001C0000
001C0000
001C0000
001C0000
01FFE000
03FFF800
0FFFFC00
1FFFFE00
1FFFFE00
3FDCFF00
3F9C7F00
7F1C3F00
7F1C3F80
7F1C3F80
7F1C0000
7F1C0000
7F9C0000
7FFC0000
3FFC0000
3FFF8000
1FFFF000
07FFFC00
01FFFE00
003FFF00
001FFF80
001CFF80
001C7F80
001C3FC0
FE1C1FC0
FE1C1FC0
FE1C1FC0
FE1C3F80
7F1C3F80
7F9CFF00
3FFFFF00
3FFFFE00
1FFFFC00
07FFF000
01FFE000
003E0000
001C0000
001C0000
001C0000
001C0000
ENDCHAR
STARTCHAR 0025
ENCODING 37
SWIDTH 1000 0
DWIDTH 49 0
BBX 45 37 2 -1
BITMAP
00000001F000
03F80003E000
0FFE0003E000
1FFF0007C000
3E0F80078000
7C07C00F8000
7C07C01F0000
F803E01F0000
F803E03E0000
F803E03C0000
F803E07C0000
F803E0780000
F803E0F80000
F803E1F00000
7C07C1F00000
7C07C3E00000
3E0F83C00000
1FFF07C0FE00
0FFE0F83FF80
03F80F87FFC0
00001F0F83E0
00001E1F01F0
00003E1F01F0
00003C3E00F0
00007C3E00F8
0000F83E00F8
0000F83E00F8
0001F03E00F8
0001E03E00F8
0003E03E00F8
0007C01F01F0
0007C01F01F0
000F800F83E0
000F000FFFE0
001F0007FFC0
001E0001FF00
003E00000000
ENDCHAR
STARTCHAR 0026
ENCODING 38
SWIDTH 795 0
DWIDTH 39 0
BBX 35 35 3 1
BITMAP
01FFE00000
07FFF80000
0FFFFC0000
1FFFFC0000
1FFFFE0000
3FC0FE0000
3F807E0000
3F807E0000
1F807E0000
1FC0FC0000
1FC1FC0000
0FE3F80000
07FFF00000
03FFE00000
01FF800000
03FF000000
0FFF00FE00
1FFF80FE00
3FFFC0FE00
3F9FE0FE00
7F0FF0FC00
7F07F8FC00
FE03FCFC00
FE01FFFC00
FE00FFF800
FE007FF800
FE003FF800
FE001FF000
FF000FF000
7FC01FF800
7FFFFFFC00
3FFFFFFE00
1FFFFFFF00
07FFFE7F80
01FFF03FE0
ENDCHAR
STARTCHAR 0027
ENCODING 39
SWIDTH 408 0
DWIDTH 20 0
BBX 8 14 6 21
BITMAP
FF
FF
7F
7E
7E
7E
7E
7E
7E
7E
7E
7E
3E
3C
ENDCHAR
STARTCHAR 0028
ENCODING 40
SWIDTH 367 0
DWIDTH 18 0
BBX 10 42 4 -6
BITMAP
0FC0
0F80
0F80
1F80
1F80
3F00
3F00
3F00
3F00
7E00
7E00
7E00
7E00
7E00
FC00
FC00
FC00
FC00
FC00
FC00
FC00
FC00
FC00
FC00
FC00
FC00
FC00
FC00
7E00
7E00
7E00
7E00
7E00
3E00
3F00
3F00
3F00
1F80
1F80
0F80
0F80
0FC0
ENDCHAR
STARTCHAR 0029
ENCODING 41
SWIDTH 367 0
DWIDTH 18 0
BBX 10 42 4 -6
BITMAP
FC00
7C00
7C00
7E00
7E00
3F00
3F00
3F00
3F00
1F80
1F80
1F80
1F80
1F80
0FC0
0FC0
0FC0
0FC0
0FC0
0FC0
0FC0
0FC0
0FC0
0FC0
0FC0
0FC0
0FC0
0FC0
1F80
1F80
1F80
1F80
1F80
3F00
3F00
3F00
3F00
7E00
7E00
7C00
FC00
FC00
ENDCHAR
STARTCHAR 002A
ENCODING 42
SWIDTH 653 0
DWIDTH 32 0
BBX 20 18 6 17
BITMAP
070E00
1F0F80
1F9F80
0F9F00
079E00
03FC00
81F810
FEF7F0
FFFFF0
FFFFF0
F9F9F0
01F800
03FC00
079E00
0F9F00
1F8F80
1F0F80
070E00
ENDCHAR
STARTCHAR 002B
ENCODING 43
SWIDTH 1000 0
DWIDTH 49 0
BBX 29 29 10 0
BITMAP
00070000
00070000
00070000
00070000
00070000
00070000
00070000
00070000
00070000
00070000
00070000
00070000
00070000
FFFFFFF8
FFFFFFF8
FFFFFFF8
00070000
00070000
00070000
00070000
00070000
00070000
00070000
00070000
00070000
00070000
00070000
00070000
00070000
ENDCHAR
STARTCHAR 002C
ENCODING 44
SWIDTH 306 0
DWIDTH 15 0
BBX 11 12 2 -6
BITMAP
0FE0
0FC0
1FC0
1F80
1F80
3F00
3F00
3E00
7E00
7C00
7C00
F800
ENDCHAR
STARTCHAR 002D
ENCODING 45
SWIDTH 346 0
DWIDTH 17 0
BBX 13 6 2 9
BITMAP
FFF8
FFF8
FFF8
FFF8
FFF8
FFF8
ENDCHAR
STARTCHAR 002E
ENCODING 46
SWIDTH 306 0
DWIDTH 15 0
BBX 7 6 5 0
BITMAP
FE
FE
FE
FE
FE
FE
ENDCHAR
STARTCHAR 002F
ENCODING 47
SWIDTH 428 0
DWIDTH 21 0
BBX 17 39 2 -3
BITMAP
000F80
000F00
001F00
001F00
001E00
003E00
003E00
003E00
007C00
007C00
007C00
007800
00F800
00F800
00F000
01F000
01F000
01F000
03E000
03E000
03E000
03C000
07C000
07C000
078000
0F8000
0F8000
0F8000
1F0000
1F0000
1F0000
3E0000
3E0000
3E0000
3C0000
7C0000
7C0000
7C0000
F80000
ENDCHAR
STARTCHAR 0030
ENCODING 48
SWIDTH 571 0
DWIDTH 28 0
BBX 25 35 2 1
BITMAP
01FF8000
07FFE000
0FFFF000
1FFFF800
1FFFFC00
3F81FC00
3F00FE00
7F007E00
7E007E00
7E003F00
7E003F00
FE003F00
FE003F00
FE003F00
FE003F80
FE003F80
FE003F80
FE003F80
FE003F80
FE003F80
FE003F80
FE003F00
FE003F00
FE003F00
7E003F00
7E003F00
7E007F00
7F007E00
3F00FE00
3F81FC00
1FFFFC00
1FFFF800
0FFFF000
07FFE000
01FF8000
ENDCHAR
STARTCHAR 0031
ENCODING 49
SWIDTH 571 0
DWIDTH 28 0
BBX 15 35 5 0
BITMAP
00FE
01FE
07FE
0FFE
3FFE
FFFE
FFFE
FEFE
FCFE
F0FE
C0FE
00FE
00FE
00FE
00FE
00FE
00FE
00FE
00FE
00FE
00FE
00FE
00FE
00FE
00FE
00FE
00FE
00FE
00FE
00FE
00FE
00FE
00FE
00FE
00FE
ENDCHAR
STARTCHAR 0032
ENCODING 50
SWIDTH 571 0
DWIDTH 28 0
BBX 25 35 2 1
BITMAP
00FFE000
03FFF800
07FFFC00
0FFFFE00
1FFFFF00
3FC0FF00
3F803F80
3F003F80
7F003F80
00003F80
00003F80
00003F80
00007F00
00007F00
0000FF00
0001FE00
0003FC00
0007FC00
000FF800
001FF000
003FE000
007FC000
01FF0000
03FE0000
07FC0000
0FF00000
3FE00000
7F800000
FF000000
FFFFFF80
FFFFFF80
FFFFFF80
FFFFFF80
FFFFFF80
FFFFFF80
ENDCHAR
STARTCHAR 0033
ENCODING 51
SWIDTH 571 0
DWIDTH 28 0
BBX 24 35 2 1
BITMAP
03FF80
0FFFE0
1FFFF0
3FFFF8
7FFFFC
7F03FC
FE01FC
FE00FC
FE00FE
0000FE
0000FE
0001FC
0001FC
000FF8
00FFF0
00FFC0
00FF80
00FFE0
00FFF8
0003FC
0000FE
0000FE
00007E
00007F
00007F
FE007F
FE007F
FE00FE
FF00FE
7F01FC
7FFFFC
3FFFF8
1FFFF0
0FFFE0
03FF80
ENDCHAR
STARTCHAR 0034
ENCODING 52
SWIDTH 571 0
DWIDTH 28 0
BBX 26 35 1 0
BITMAP
0007FC00
000FFC00
001FFC00
001FFC00
003FFC00
003FFC00
007FFC00
00FDFC00
00FDFC00
01F9FC00
01F9FC00
03F1FC00
07F1FC00
07E1FC00
0FC1FC00
0FC1FC00
1F81FC00
3F81FC00
3F01FC00
7E01FC00
FE01FC00
FC01FC00
FFFFFFC0
FFFFFFC0
FFFFFFC0
FFFFFFC0
FFFFFFC0
FFFFFFC0
0001FC00
0001FC00
0001FC00
0001FC00
0001FC00
0001FC00
0001FC00
ENDCHAR
STARTCHAR 0035
ENCODING 53
SWIDTH 571 0
DWIDTH 28 0
BBX 24 35 2 0
BITMAP
7FFFFC
7FFFFC
7FFFFC
7FFFFC
7FFFFC
7FFFFC
7F0000
7F0000
7F0000
7F0000
7F0000
7F0000
7F1FC0
7F7FF0
7FFFF8
7FFFFC
7FFFFC
7FC1FE
7F00FE
7F007F
7E007F
00007F
00007F
00007F
00007F
00007F
FE007F
FE00FE
FE00FE
FF01FC
7FFFFC
7FFFF8
3FFFF0
0FFFC0
07FF80
ENDCHAR
STARTCHAR 0036
ENCODING 54
SWIDTH 571 0
DWIDTH 28 0
BBX 25 35 2 1
BITMAP
00FFC000
03FFF000
07FFF800
0FFFFC00
1FFFFE00
1FE0FE00
3FC07F00
3F807F00
7F000000
7F000000
7F000000
7E000000
FE1FC000
FE7FF000
FEFFF800
FEFFFC00
FFFFFE00
FFE1FE00
FFC0FF00
FF807F00
FF003F00
FF003F80
FF003F80
FF003F80
FF003F80
7F003F00
7F003F00
7F807F00
7F807F00
3FC0FE00
1FFFFC00
1FFFFC00
0FFFF800
07FFE000
01FF8000
ENDCHAR
STARTCHAR 0037
ENCODING 55
SWIDTH 571 0
DWIDTH 28 0
BBX 24 35 2 0
BITMAP
FFFFFF
FFFFFF
FFFFFF
FFFFFF
FFFFFF
FFFFFF
00007F
00007F
0000FE
0000FE
0001FE
0001FC
0003FC
0003F8
0007F8
0007F0
000FF0
000FF0
001FE0
001FE0
003FC0
003FC0
003F80
007F80
007F00
00FF00
00FF00
01FE00
01FE00
03FC00
03FC00
07F800
07F800
0FF800
0FF000
ENDCHAR
STARTCHAR 0038
ENCODING 56
SWIDTH 571 0
DWIDTH 28 0
BBX 25 35 2 1
BITMAP
03FFC000
0FFFF000
1FFFFC00
3FFFFE00
3FFFFE00
7FC1FF00
7F80FF00
7F007F00
7F007F00
7F007F00
7F007F00
7F007F00
3F80FE00
3FC1FC00
0FFFF800
07FFE000
01FFC000
0FFFF000
1FFFF800
3FC1FE00
7F80FE00
7F007F00
FE003F00
FE003F00
FE003F80
FE003F80
FE003F80
FF007F80
FF007F00
7F80FF00
7FFFFF00
3FFFFE00
3FFFFC00
0FFFF800
03FFE000
ENDCHAR
STARTCHAR 0039
ENCODING 57
SWIDTH 571 0
DWIDTH 28 0
BBX 25 35 2 1
BITMAP
01FFC000
07FFE000
0FFFF800
1FFFFC00
3FFFFC00
7F81FE00
7F00FE00
7E00FF00
FE007F00
FE007F00
FE007F80
FE007F80
FE007F80
FE007F80
FE00FF80
7F00FF80
7F83FF80
3FFFFF80
3FFFBF80
1FFFBF80
0FFF3F80
01F83F80
00003F00
00007F00
00007F00
00007F00
7F00FE00
7F00FE00
7F01FE00
3F83FC00
1FFFFC00
1FFFF800
0FFFF000
07FFE000
01FF8000
ENDCHAR
STARTCHAR 003A
ENCODING 58
SWIDTH 326 0
DWIDTH 16 0
BBX 7 24 7 0
BITMAP
FE
FE
FE
FE
FE
FE
00
00
00
00
00
00
00
00
00
00
00
00
FE
FE
FE
FE
FE
FE
ENDCHAR
STARTCHAR 003B
ENCODING 59
SWIDTH 326 0
DWIDTH 16 0
BBX 10 30 3 -6
BITMAP
1FC0
1FC0
1FC0
1FC0
1FC0
1FC0
0000
0000
0000
0000
0000
0000
0000
0000
0000
0000
0000
0000
1FC0
1FC0
3F80
3F80
3F00
7F00
7E00
7C00
FC00
F800
F800
F000
ENDCHAR
STARTCHAR 003C
ENCODING 60
SWIDTH 1000 0
DWIDTH 49 0
BBX 30 25 10 2
BITMAP
0000001C
0000007C
000003FC
00001FE0
00007F80
0003FC00
000FE000
007F8000
03FC0000
0FE00000
7F000000
FC000000
E0000000
FC000000
7F800000
0FF00000
01FC0000
007F8000
000FF000
0001FC00
00007F80
00000FF0
000001FC
0000007C
0000000C
ENDCHAR
STARTCHAR 003D
ENCODING 61
SWIDTH 1000 0
DWIDTH 49 0
BBX 29 12 10 9
BITMAP
FFFFFFF8
FFFFFFF8
FFFFFFF8
00000000
00000000
00000000
00000000
00000000
00000000
FFFFFFF8
FFFFFFF8
FFFFFFF8
ENDCHAR
STARTCHAR 003E
ENCODING 62
SWIDTH 1000 0
DWIDTH 49 0
BBX 30 25 10 2
BITMAP
C0000000
F8000000
FE000000
3FC00000
07F80000
00FE0000
003FC000
0007F800
0000FE00
00003FC0
000007F0
000000FC
0000003C
000001FC
000007F0
00003F80
0001FE00
0007F000
003F8000
01FE0000
0FF00000
3FC00000
FE000000
F0000000
C0000000
ENDCHAR
STARTCHAR 003F
ENCODING 63
SWIDTH 530 0
DWIDTH 26 0
BBX 22 35 1 1
BITMAP
03FF00
0FFFC0
1FFFE0
3FFFF0
7FFFF8
FE03F8
FC01FC
7C01FC
1801FC
0001FC
0001FC
0001F8
0003F8
0003F0
0007E0
000FC0
003F80
007F00
00FE00
01F800
01F800
01F000
01F000
01F000
01F000
01F000
01F000
000000
000000
000000
01F800
01F800
01F800
01F800
01F800
ENDCHAR
STARTCHAR 0040
ENCODING 64
SWIDTH 1040 0
DWIDTH 51 0
BBX 47 46 2 -10
BITMAP
00007FFF0000
0003FFFFE000
000FFFFFF800
003FFFFFFC00
007FFFFFFF00
00FFFFFFFF80
01FFE003FFC0
03FF00007FE0
07FE00003FE0
0FF800001FF0
0FF000000FF8
1FE01F8FE7F8
3FC07FEFE3FC
3F80FFFFE3FC
3F81FFFFE1FC
7F03FFFFE1FC
7F07FC3FE0FE
7F07F01FE0FE
FE07F01FE0FE
FE0FE00FE0FE
FE0FE00FE0FE
FE0FE00FE0FE
FE0FE00FE0FE
FE0FE00FE0FE
FE0FE00FE0FE
FE0FE00FE0FC
FE0FE00FE0FC
FE07F01FE1FC
7E07F01FE1F8
7F07F87FF3F8
7F03FFFFFFF0
3F81FFFBFFF0
3F80FFF3FFE0
3FC07FE1FF80
1FE01F807E00
0FF000000000
0FF800000000
07FC00000000
03FF00000000
01FFE001E000
00FFFFFFE000
007FFFFFE000
001FFFFFE000
0007FFFFE000
0001FFFFE000
00001FFF0000
ENDCHAR
STARTCHAR 0041
ENCODING 65
SWIDTH 714 0
DWIDTH 35 0
BBX 33 35 1 0
BITMAP
0007F00000
000FF80000
000FF80000
001FF80000
001FFC0000
001FFC0000
003FFE0000
003FFE0000
003F7E0000
007F7F0000
007E7F0000
00FE3F0000
00FE3F8000
00FC3F8000
01FC1FC000
01FC1FC000
03F81FC000
03F80FE000
03F80FE000
07F00FE000
07F007F000
07F007F000
0FFFFFF800
0FFFFFF800
1FFFFFF800
1FFFFFFC00
1FFFFFFC00
3FFFFFFC00
3F8001FE00
3F8000FE00
7F0000FF00
7F00007F00
FF00007F00
FE00003F80
FE00003F80
ENDCHAR
STARTCHAR 0042
ENCODING 66
SWIDTH 673 0
DWIDTH 33 0
BBX 27 35 3 0
BITMAP
FFFFC000
FFFFF800
FFFFFC00
FFFFFE00
FFFFFF00
FFFFFF80
FE01FF80
FE007F80
FE003F80
FE003F80
FE003F80
FE003F00
FE007F00
FE01FE00
FFFFFC00
FFFFF000
FFFFC000
FFFFFC00
FFFFFE00
FE00FF80
FE003FC0
FE003FC0
FE001FC0
FE001FE0
FE001FE0
FE001FE0
FE003FE0
FE003FE0
FE00FFC0
FFFFFFC0
FFFFFF80
FFFFFF00
FFFFFE00
FFFFF800
FFFFE000
ENDCHAR
STARTCHAR 0043
ENCODING 67
SWIDTH 734 0
DWIDTH 36 0
BBX 30 35 3 1
BITMAP
003FFC00
00FFFF00
03FFFFC0
07FFFFE0
0FFFFFE0
1FFFFFF0
1FE00FF8
3FC007F8
3F8007F8
7F0003F8
7F0003FC
7F0001FC
FE000000
FE000000
FE000000
FE000000
FE000000
FE000000
FE000000
FE000000
FE000000
FE000000
FE000000
7E000000
7F0003FC
7F0003FC
3F0007FC
3F8007F8
3FC00FF8
1FE01FF0
0FFFFFE0
07FFFFC0
03FFFF80
01FFFE00
007FF800
ENDCHAR
STARTCHAR 0044
ENCODING 68
SWIDTH 693 0
DWIDTH 34 0
BBX 29 35 3 0
BITMAP
FFFE0000
FFFFE000
FFFFF800
FFFFFC00
FFFFFF00
FFFFFF80
FE01FF80
FE007FC0
FE001FE0
FE000FE0
FE000FF0
FE0007F0
FE0007F0
FE0003F0
FE0003F0
FE0003F8
FE0003F8
FE0003F8
FE0003F8
FE0003F8
FE0003F0
FE0003F0
FE0007F0
FE0007F0
FE000FF0
FE000FE0
FE001FE0
FE007FC0
FE01FF80
FFFFFF80
FFFFFF00
FFFFFC00
FFFFF800
FFFFE000
FFFE0000
ENDCHAR
STARTCHAR 0045
ENCODING 69
SWIDTH 612 0
DWIDTH 30 0
BBX 24 35 3 0
BITMAP
FFFFFF
FFFFFF
FFFFFF
FFFFFF
FFFFFF
FFFFFF
FE0000
FE0000
FE0000
FE0000
FE0000
FE0000
FE0000
FE0000
FFFFFE
FFFFFE
FFFFFE
FFFFFE
FFFFFE
FE0000
FE0000
FE0000
FE0000
FE0000
FE0000
FE0000
FE0000
FE0000
FE0000
FFFFFF
FFFFFF
FFFFFF
FFFFFF
FFFFFF
FFFFFF
ENDCHAR
STARTCHAR 0046
ENCODING 70
SWIDTH 571 0
DWIDTH 28 0
BBX 23 35 3 0
BITMAP
FFFFFE
FFFFFE
FFFFFE
FFFFFE
FFFFFE
FFFFFE
FE0000
FE0000
FE0000
FE0000
FE0000
FE0000
FE0000
FE0000
FFFFFC
FFFFFC
FFFFFC
FFFFFC
FFFFFC
FFFFFC
FE0000
FE0000
FE0000
FE0000
FE0000
FE0000
FE0000
FE0000
FE0000
FE0000
FE0000
FE0000
FE0000
FE0000
FE0000
ENDCHAR
STARTCHAR 0047
ENCODING 71
SWIDTH 775 0
DWIDTH 38 0
BBX 32 35 3 1
BITMAP
000FFF80
007FFFE0
00FFFFF0
03FFFFF8
07FFFFFC
0FFFFFFE
1FF803FE
1FE000FF
3FC000FF
3F80007F
7F80007F
7F000000
7F000000
FF000000
FE000000
FE000000
FE003FFF
FE003FFF
FE003FFF
FE003FFF
FE003FFF
FE003FFF
FF00007F
7F00007F
7F80007F
7F80007F
3FC0007F
3FF0007F
1FFC007F
0FFFFFFF
07FFFFFF
03FFFFFF
01FFFFFF
007FFFFE
000FFFE0
ENDCHAR
STARTCHAR 0048
ENCODING 72
SWIDTH 693 0
DWIDTH 34 0
BBX 28 35 3 0
BITMAP
FE0007F0
FE0007F0
FE0007F0
FE0007F0
FE0007F0
FE0007F0
FE0007F0
FE0007F0
FE0007F0
FE0007F0
FE0007F0
FE0007F0
FE0007F0
FE0007F0
FFFFFFF0
FFFFFFF0
FFFFFFF0
FFFFFFF0
FFFFFFF0
FFFFFFF0
FE0007F0
FE0007F0
FE0007F0
FE0007F0
FE0007F0
FE0007F0
FE0007F0
FE0007F0
FE0007F0
FE0007F0
FE0007F0
FE0007F0
FE0007F0
FE0007F0
FE0007F0
ENDCHAR
STARTCHAR 0049
ENCODING 73
SWIDTH 265 0
DWIDTH 13 0
BBX 7 35 3 0
BITMAP
FE
FE
FE
FE
FE
FE
FE
FE
FE
FE
FE
FE
FE
FE
FE
FE
FE
FE
FE
FE
FE
FE
FE
FE
FE
FE
FE
FE
FE
FE
FE
FE
FE
FE
FE
ENDCHAR
STARTCHAR 004A
ENCODING 74
SWIDTH 612 0
DWIDTH 30 0
BBX 24 35 3 0
BITMAP
00007F
00007F
00007F
00007F
00007F
00007F
00007F
00007F
00007F
00007F
00007F
00007F
00007F
00007F
00007F
00007F
00007F
00007F
00007F
00007F
00007F
00007F
00007F
00007F
FE007F
FE007F
FE007F
FF00FF
7F81FE
7FFFFE
7FFFFC
3FFFF8
3FFFF0
1FFFE0
07FF80
ENDCHAR
STARTCHAR 004B
ENCODING 75
SWIDTH 673 0
DWIDTH 33 0
BBX 28 35 3 0
BITMAP
FE003FE0
FE003FC0
FE007F80
FE00FF00
FE01FF00
FE03FE00
FE03FC00
FE07F800
FE0FF000
FE1FF000
FE1FE000
FE3FC000
FE7F8000
FEFF0000
FFFF0000
FFFE0000
FFFE0000
FFFF0000
FEFF8000
FE7F8000
FE7FC000
FE3FE000
FE1FF000
FE1FF000
FE0FF800
FE07FC00
FE03FC00
FE03FE00
FE01FF00
FE00FF80
FE007F80
FE007FC0
FE003FE0
FE001FE0
FE001FF0
ENDCHAR
STARTCHAR 004C
ENCODING 76
SWIDTH 571 0
DWIDTH 28 0
BBX 24 35 3 0
BITMAP
FE0000
FE0000
FE0000
FE0000
FE0000
FE0000
FE0000
FE0000
FE0000
FE0000
FE0000
FE0000
FE0000
FE0000
FE0000
FE0000
FE0000
FE0000
FE0000
FE0000
FE0000
FE0000
FE0000
FE0000
FE0000
FE0000
FE0000
FE0000
FE0000
FFFFFF
FFFFFF
FFFFFF
FFFFFF
FFFFFF
FFFFFF
ENDCHAR
STARTCHAR 004D
ENCODING 77
SWIDTH 918 0
DWIDTH 45 0
BBX 39 35 3 0
BITMAP
FFF0001FFE
FFF0001FFE
FFF0003FFE
FFF8003FFE
FFF8003FFE
FFF8007FFE
FFFC007FFE
FFFC007FFE
FFFC00FEFE
FEFE00FEFE
FEFE00FEFE
FEFE00FCFE
FE7E01FCFE
FE7F01FCFE
FE7F01F8FE
FE3F03F8FE
FE3F83F8FE
FE3F83F0FE
FE1F87F0FE
FE1FC7F0FE
FE1FC7E0FE
FE0FCFE0FE
FE0FCFE0FE
FE0FEFE0FE
FE0FEFC0FE
FE07FFC0FE
FE07FFC0FE
FE07FF80FE
FE03FF80FE
FE03FF80FE
FE03FF00FE
FE01FF00FE
FE01FF00FE
FE01FE00FE
FE00FE00FE
ENDCHAR
STARTCHAR 004E
ENCODING 78
SWIDTH 755 0
DWIDTH 37 0
BBX 31 35 3 0
BITMAP
FFC000FE
FFE000FE
FFE000FE
FFF000FE
FFF000FE
FFF800FE
FFF800FE
FFFC00FE
FFFC00FE
FEFE00FE
FEFE00FE
FE7F00FE
FE7F00FE
FE3F80FE
FE3F80FE
FE1FC0FE
FE1FC0FE
FE0FE0FE
FE0FE0FE
FE07F0FE
FE07F0FE
FE03F8FE
FE03F8FE
FE01FCFE
FE01FCFE
FE00FEFE
FE00FEFE
FE007FFE
FE007FFE
FE003FFE
FE003FFE
FE001FFE
FE001FFE
FE000FFE
FE000FFE
ENDCHAR
STARTCHAR 004F
ENCODING 79
SWIDTH 795 0
DWIDTH 39 0
BBX 33 35 3 1
BITMAP
003FFE0000
00FFFF8000
03FFFFE000
07FFFFF000
0FFFFFF800
1FFFFFFC00
1FF007FC00
3FC001FE00
3F8000FE00
7F8000FF00
7F00007F00
7F00007F00
FF00007F00
FE00003F80
FE00003F80
FE00003F80
FE00003F80
FE00003F80
FE00003F80
FE00003F80
FE00003F80
FE00003F80
FF00007F80
7F00007F00
7F00007F00
7F8000FF00
3F8000FE00
3FC001FE00
1FF007FC00
1FFFFFFC00
0FFFFFF800
07FFFFF000
03FFFFE000
00FFFF8000
003FFE0000
ENDCHAR
STARTCHAR 0050
ENCODING 80
SWIDTH 653 0
DWIDTH 32 0
BBX 26 35 3 0
BITMAP
FFFF8000
FFFFF000
FFFFFC00
FFFFFE00
FFFFFF00
FFFFFF80
FE00FF80
FE003F80
FE003FC0
FE001FC0
FE001FC0
FE001FC0
FE001FC0
FE003FC0
FE003FC0
FE00FF80
FFFFFF80
FFFFFF00
FFFFFE00
FFFFFC00
FFFFF000
FFFF8000
FE000000
FE000000
FE000000
FE000000
FE000000
FE000000
FE000000
FE000000
FE000000
FE000000
FE000000
FE000000
FE000000
ENDCHAR
STARTCHAR 0051
ENCODING 81
SWIDTH 836 0
DWIDTH 41 0
BBX 37 35 3 1
BITMAP
003FFE0000
00FFFF8000
03FFFFE000
07FFFFF000
0FFFFFF800
1FFFFFFC00
1FF007FC00
3FC001FE00
3F8000FE00
7F8000FF00
7F00007F00
7F00007F00
FF00007F80
FE00003F80
FE00003F80
FE00003F80
FE00003F80
FE00003F80
FE00003F80
FE00003F80
FE00003F80
FE00003F80
FF00007F00
7F00007F00
7F00007F00
7F8000FE00
3F8000FE00
3FC001FC00
1FF007F800
0FFFFFF3F8
0FFFFFFFF8
07FFFFFFF8
01FFFFFFF8
00FFFFFFF8
001FFFFFF8
ENDCHAR
STARTCHAR 0052
ENCODING 82
SWIDTH 673 0
DWIDTH 33 0
BBX 28 35 3 0
BITMAP
FFFFE000
FFFFFC00
FFFFFF00
FFFFFF80
FFFFFFC0
FFFFFFC0
FE007FE0
FE003FE0
FE001FE0
FE000FE0
FE000FE0
FE000FE0
FE001FC0
FE003FC0
FE00FF80
FFFFFF00
FFFFFC00
FFFFF000
FFFFFE00
FFFFFF00
FFFFFF80
FE00FF80
FE003F80
FE003FC0
FE001FC0
FE001FC0
FE001FC0
FE001FC0
FE001FC0
FE000FE0
FE000FE0
FE000FE0
FE000FE0
FE000FE0
FE000FF0
ENDCHAR
STARTCHAR 0053
ENCODING 83
SWIDTH 693 0
DWIDTH 34 0
BBX 28 35 3 1
BITMAP
007FF800
01FFFE00
07FFFF00
0FFFFF80
1FFFFFC0
3FE03FC0
3F801FE0
3F000FE0
7F000FE0
7F000FE0
7F000000
7F800000
3FC00000
3FF80000
1FFF0000
1FFFF000
07FFFC00
03FFFF00
007FFF80
000FFFC0
0000FFE0
00001FE0
00000FF0
FE0007F0
FE0007F0
FE0007F0
FE0007F0
7F000FF0
7F801FE0
7FFFFFE0
3FFFFFC0
1FFFFF80
0FFFFF00
03FFFC00
00FFF000
ENDCHAR
STARTCHAR 0054
ENCODING 84
SWIDTH 612 0
DWIDTH 30 0
BBX 28 35 1 0
BITMAP
FFFFFFF0
FFFFFFF0
FFFFFFF0
FFFFFFF0
FFFFFFF0
FFFFFFF0
001FC000
001FC000
001FC000
001FC000
001FC000
001FC000
001FC000
001FC000
001FC000
001FC000
001FC000
001FC000
001FC000
001FC000
001FC000
001FC000
001FC000
001FC000
001FC000
001FC000
001FC000
001FC000
001FC000
001FC000
001FC000
001FC000
001FC000
001FC000
001FC000
ENDCHAR
STARTCHAR 0055
ENCODING 85
SWIDTH 734 0
DWIDTH 36 0
BBX 30 35 3 0
BITMAP
FE0001FC
FE0001FC
FE0001FC
FE0001FC
FE0001FC
FE0001FC
FE0001FC
FE0001FC
FE0001FC
FE0001FC
FE0001FC
FE0001FC
FE0001FC
FE0001FC
FE0001FC
FE0001FC
FE0001FC
FE0001FC
FE0001FC
FE0001FC
FE0001FC
FE0001FC
FE0001FC
FE0001FC
FF0003FC
7F0003F8
7F0007F8
7F8007F8
3FE01FF0
3FFFFFE0
1FFFFFE0
0FFFFFC0
07FFFF80
03FFFE00
00FFF800
ENDCHAR
STARTCHAR 0056
ENCODING 86
SWIDTH 734 0
DWIDTH 36 0
BBX 34 35 1 0
BITMAP
FF00001FC0
FF00003FC0
FF00003FC0
7F80003F80
7F80007F80
3F80007F80
3FC000FF00
3FC000FF00
1FC000FE00
1FE001FE00
1FE001FE00
0FF001FC00
0FF003FC00
07F003F800
07F803F800
07F807F800
03F807F000
03FC0FF000
03FC0FF000
01FC0FE000
01FE1FE000
01FE1FC000
00FF1FC000
00FF3FC000
007F3F8000
007FBF8000
007FFF0000
003FFF0000
003FFF0000
003FFE0000
001FFE0000
001FFE0000
000FFC0000
000FFC0000
000FF80000
ENDCHAR
STARTCHAR 0057
ENCODING 87
SWIDTH 1000 0
DWIDTH 49 0
BBX 47 35 1 0
BITMAP
FE001FF000FE
FF001FF001FE
FF001FF001FE
FF001FF001FE
7F003FF801FC
7F003FF801FC
7F803FF803FC
7F803FF803FC
3F807FFC03F8
3F807EFC03F8
3F807EFC07F8
3FC07EFC07F8
1FC0FEFE07F0
1FC0FC7E07F0
1FC0FC7E07F0
1FE0FC7E0FF0
0FE1FC3F0FE0
0FE1F83F0FE0
0FE1F83F0FE0
0FE3F83F0FE0
07F3F01F9FC0
07F3F01F9FC0
07F3F01F9FC0
07F7F01FDFC0
03F7E00FDF80
03FFE00FFF80
03FFE00FFF80
03FFE00FFF80
01FFC007FF00
01FFC007FF00
01FFC007FF00
01FFC007FF00
00FF8003FE00
00FF8003FE00
00FF8003FE00
ENDCHAR
STARTCHAR 0058
ENCODING 88
SWIDTH 693 0
DWIDTH 34 0
BBX 32 35 1 0
BITMAP
7F8000FE
3FC001FC
3FC003FC
1FE003F8
0FF007F0
0FF00FF0
07F80FE0
03FC1FC0
03FC3FC0
01FE3F80
00FF7F00
00FF7F00
007FFE00
003FFC00
003FFC00
001FF800
000FF000
001FF000
001FF800
003FFC00
007FFE00
007FFE00
00FEFF00
01FC7F80
01FC7F80
03F83FC0
07F01FE0
07F01FE0
0FE00FF0
1FC007F8
1FC007F8
3F8003FC
7F0003FE
FF0001FE
FE0000FF
ENDCHAR
STARTCHAR 0059
ENCODING 89
SWIDTH 632 0
DWIDTH 31 0
BBX 31 35 0 0
BITMAP
FF8003FE
7F8003FC
3FC007F8
3FC007F8
1FC00FF0
1FE00FF0
0FE01FE0
0FF01FE0
07F01FC0
07F83FC0
03F83F80
03FC7F80
01FC7F00
00FEFE00
00FEFE00
007FFC00
007FFC00
003FF800
003FF800
001FF000
001FF000
000FE000
000FE000
000FE000
000FE000
000FE000
000FE000
000FE000
000FE000
000FE000
000FE000
000FE000
000FE000
000FE000
000FE000
ENDCHAR
STARTCHAR 005A
ENCODING 90
SWIDTH 632 0
DWIDTH 31 0
BBX 27 35 2 0
BITMAP
7FFFFFC0
7FFFFFC0
7FFFFFC0
7FFFFFC0
7FFFFFC0
7FFFFFC0
00007FC0
0000FF80
0000FF00
0001FF00
0003FE00
0007FC00
000FF800
000FF800
001FF000
003FE000
007FC000
007F8000
00FF8000
01FF0000
03FE0000
07FC0000
07F80000
0FF80000
1FF00000
3FE00000
3FC00000
7FC00000
FF800000
FFFFFFE0
FFFFFFE0
FFFFFFE0
FFFFFFE0
FFFFFFE0
FFFFFFE0
ENDCHAR
STARTCHAR 005B
ENCODING 91
SWIDTH 387 0
DWIDTH 19 0
BBX 11 45 4 -10
BITMAP
FFE0
FFE0
FFE0
FFE0
FC00
FC00
FC00
FC00
FC00
FC00
FC00
FC00
FC00
FC00
FC00
FC00
FC00
FC00
FC00
FC00
FC00
FC00
FC00
FC00
FC00
FC00
FC00
FC00
FC00
FC00
FC00
FC00
FC00
FC00
FC00
FC00
FC00
FC00
FC00
FC00
FC00
FFE0
FFE0
FFE0
FFE0
ENDCHAR
STARTCHAR 005C
ENCODING 92
SWIDTH 428 0
DWIDTH 21 0
BBX 17 39 2 -3
BITMAP
F80000
780000
7C0000
7C0000
7C0000
3E0000
3E0000
3E0000
1E0000
1F0000
1F0000
0F0000
0F8000
0F8000
0F8000
07C000
07C000
07C000
03C000
03E000
03E000
01E000
01F000
01F000
01F000
00F800
00F800
00F800
007800
007C00
007C00
003C00
003E00
003E00
003E00
001F00
001F00
001F00
000F80
ENDCHAR
STARTCHAR 005D
ENCODING 93
SWIDTH 387 0
DWIDTH 19 0
BBX 11 45 4 -10
BITMAP
FFE0
FFE0
FFE0
FFE0
07E0
07E0
07E0
07E0
07E0
07E0
07E0
07E0
07E0
07E0
07E0
07E0
07E0
07E0
07E0
07E0
07E0
07E0
07E0
07E0
07E0
07E0
07E0
07E0
07E0
07E0
07E0
07E0
07E0
07E0
07E0
07E0
07E0
07E0
07E0
07E0
07E0
FFE0
FFE0
FFE0
FFE0
ENDCHAR
STARTCHAR 005E
ENCODING 94
SWIDTH 1000 0
DWIDTH 49 0
BBX 25 29 12 0
BITMAP
001C0000
003E0000
003E0000
00360000
00770000
00770000
00E38000
00E38000
00C18000
01C1C000
01C1C000
0380C000
0380E000
0380E000
07007000
07007000
06003000
0E003800
0E003800
1C001C00
1C001C00
1C001C00
38000E00
38000E00
70000700
70000700
70000700
E0000380
E0000380
ENDCHAR
STARTCHAR 005F
ENCODING 95
SWIDTH 510 0
DWIDTH 25 0
BBX 25 4 0 -7
BITMAP
FFFFFF80
FFFFFF80
FFFFFF80
FFFFFF80
ENDCHAR
STARTCHAR 0060
ENCODING 96
SWIDTH 244 0
DWIDTH 12 0
BBX 10 9 -1 29
BITMAP
FC00
7E00
3E00
1F00
1F00
0F80
0780
03C0
01C0
ENDCHAR
STARTCHAR 0061
ENCODING 97
SWIDTH 551 0
DWIDTH 27 0
BBX 23 24 2 1
BITMAP
03FF80
0FFFE0
1FFFF0
3FFFF8
7F03F8
7F01FC
0001FC
0001FC
01FFFC
0FFFFC
1FFFFC
3FFFFC
7FC1FC
7F01FC
FE01FC
FE01FC
FE01FC
FE01FC
FE03FC
FF07FC
7FFFFC
3FFEFC
1FFCFC
0FF87E
ENDCHAR
STARTCHAR 0062
ENCODING 98
SWIDTH 612 0
DWIDTH 30 0
BBX 25 35 3 0
BITMAP
FE000000
FE000000
FE000000
FE000000
FE000000
FE000000
FE000000
FE000000
FE000000
FE000000
FE000000
FE7FE000
FEFFF000
FFFFF800
FFFFFC00
FF81FE00
FF00FE00
FF007F00
FE007F00
FE007F00
FE003F00
FE003F80
FE003F80
FE003F80
FE003F80
FE003F80
FE003F00
FE007F00
FF007F00
FF80FE00
FFC1FE00
FFFFFC00
FFFFF800
FEFFF000
FE3FC000
ENDCHAR
STARTCHAR 0063
ENCODING 99
SWIDTH 510 0
DWIDTH 25 0
BBX 21 24 2 1
BITMAP
03FF80
0FFFC0
1FFFE0
3FFFF0
3F87F0
7F03F8
7E03F8
FE03F8
FE03F8
FE0000
FE0000
FE0000
FE0000
FE0000
FE0000
FE03F8
FE03F8
7E03F8
7E03F8
7F07F0
3FFFF0
1FFFE0
0FFFC0
03FF00
ENDCHAR
STARTCHAR 0064
ENCODING 100
SWIDTH 612 0
DWIDTH 30 0
BBX 25 35 2 0
BITMAP
00003F80
00003F80
00003F80
00003F80
00003F80
00003F80
00003F80
00003F80
00003F80
00003F80
00003F80
03FF3F80
0FFFBF80
1FFFFF80
3FFFFF80
3FC1FF80
7F80FF80
7F007F80
7F007F80
FE003F80
FE003F80
FE003F80
FE003F80
FE003F80
FE003F80
FE003F80
FE003F80
7E007F80
7F007F80
7F00FF80
3F81FF80
1FFFFF80
1FFFBF80
0FFF3F80
03FE3F80
ENDCHAR
STARTCHAR 0065
ENCODING 101
SWIDTH 551 0
DWIDTH 27 0
BBX 23 24 2 1
BITMAP
03FF80
07FFC0
1FFFF0
1FFFF0
3F03F8
7F01F8
7E00FC
7E00FC
FE00FC
FFFFFC
FFFFFC
FFFFFE
FFFFFE
FE0000
FE0000
FE0000
FE00FC
7E01FC
7F01FC
3F83F8
3FFFF8
1FFFF0
0FFFE0
03FF80
ENDCHAR
STARTCHAR 0066
ENCODING 102
SWIDTH 367 0
DWIDTH 18 0
BBX 17 35 1 1
BITMAP
01FF80
03FF80
07FF80
07FF80
07F000
0FE000
0FE000
0FE000
0FE000
0FE000
0FE000
FFFF00
FFFF00
FFFF00
FFFF00
0FE000
0FE000
0FE000
0FE000
0FE000
0FE000
0FE000
0FE000
0FE000
0FE000
0FE000
0FE000
0FE000
0FE000
0FE000
0FE000
0FE000
0FE000
0FE000
0FE000
ENDCHAR
STARTCHAR 0067
ENCODING 103
SWIDTH 612 0
DWIDTH 30 0
BBX 25 34 2 -9
BITMAP
03FF3F80
0FFFBF80
1FFFFF80
3FFFFF80
3FC1FF80
7F80FF80
7F007F80
7F007F80
FE003F80
FE003F80
FE003F80
FE003F80
FE003F80
FE003F80
FE003F80
FE003F80
7E007F80
7F007F80
7F80FF80
3FC3FF80
1FFFFF80
0FFFBF80
07FF3F80
01FC3F80
00003F80
00003F80
00003F00
7F007F00
3F807F00
3FC1FE00
1FFFFE00
1FFFF800
07FFF000
01FF8000
ENDCHAR
STARTCHAR 0068
ENCODING 104
SWIDTH 591 0
DWIDTH 29 0
BBX 23 35 3 0
BITMAP
FE0000
FE0000
FE0000
FE0000
FE0000
FE0000
FE0000
FE0000
FE0000
FE0000
FE0000
FE7FE0
FEFFF8
FFFFF8
FFFFFC
FF83FC
FF01FE
FF00FE
FE00FE
FE00FE
FE00FE
FE00FE
FE00FE
FE00FE
FE00FE
FE00FE
FE00FE
FE00FE
FE00FE
FE00FE
FE00FE
FE00FE
FE00FE
FE00FE
FE00FE
ENDCHAR
STARTCHAR 0069
ENCODING 105
SWIDTH 285 0
DWIDTH 14 0
BBX 8 35 3 0
BITMAP
FF
FF
FF
FF
FF
FF
00
00
00
00
00
FE
FE
FE
FE
FE
FE
FE
FE
FE
FE
FE
FE
FE
FE
FE
FE
FE
FE
FE
FE
FE
FE
FE
FE
ENDCHAR
STARTCHAR 006A
ENCODING 106
SWIDTH 367 0
DWIDTH 18 0
BBX 10 46 5 -11
BITMAP
3FC0
3FC0
3FC0
3FC0
3FC0
3FC0
0000
0000
0000
0000
0000
3F80
3F80
3F80
3F80
3F80
3F80
3F80
3F80
3F80
3F80
3F80
3F80
3F80
3F80
3F80
3F80
3F80
3F80
3F80
3F80
3F80
3F80
3F80
3F80
3F80
3F80
3F80
3F80
3F80
7F80
FF80
FF80
FF00
FE00
FC00
ENDCHAR
STARTCHAR 006B
ENCODING 107
SWIDTH 551 0
DWIDTH 27 0
BBX 23 35 3 0
BITMAP
FE0000
FE0000
FE0000
FE0000
FE0000
FE0000
FE0000
FE0000
FE0000
FE0000
FE0000
FE03FC
FE07F8
FE0FF0
FE0FE0
FE1FC0
FE3FC0
FE7F80
FEFF00
FFFE00
FFFC00
FFFC00
FFFC00
FFFE00
FEFF00
FE7F00
FE7F80
FE3FC0
FE1FC0
FE1FE0
FE0FF0
FE07F8
FE07F8
FE03FC
FE01FE
ENDCHAR
STARTCHAR 006C
ENCODING 108
SWIDTH 265 0
DWIDTH 13 0
BBX 7 35 3 0
BITMAP
FE
FE
FE
FE
FE
FE
FE
FE
FE
FE
FE
FE
FE
FE
FE
FE
FE
FE
FE
FE
FE
FE
FE
FE
FE
FE
FE
FE
FE
FE
FE
FE
FE
FE
FE
ENDCHAR
STARTCHAR 006D
ENCODING 109
SWIDTH 918 0
DWIDTH 45 0
BBX 39 24 3 1
BITMAP
FE3FE07FE0
FE7FF0FFF0
FEFFF9FFF8
FFFFFFFFFC
FFC3FF83FC
FF01FF01FC
FF00FE00FE
FE00FE00FE
FE00FE00FE
FE00FE00FE
FE00FE00FE
FE00FE00FE
FE00FE00FE
FE00FE00FE
FE00FE00FE
FE00FE00FE
FE00FE00FE
FE00FE00FE
FE00FE00FE
FE00FE00FE
FE00FE00FE
FE00FE00FE
FE00FE00FE
FE00FE00FE
ENDCHAR
STARTCHAR 006E
ENCODING 110
SWIDTH 591 0
DWIDTH 29 0
BBX 23 24 3 1
BITMAP
FE7FE0
FEFFF8
FFFFF8
FFFFFC
FF83FC
FF01FE
FE00FE
FE00FE
FE00FE
FE00FE
FE00FE
FE00FE
FE00FE
FE00FE
FE00FE
FE00FE
FE00FE
FE00FE
FE00FE
FE00FE
FE00FE
FE00FE
FE00FE
FE00FE
ENDCHAR
STARTCHAR 006F
ENCODING 111
SWIDTH 591 0
DWIDTH 29 0
BBX 25 25 2 0
BITMAP
00080000
01FFC000
07FFF000
0FFFF800
1FFFFC00
3FC1FE00
3F007E00
7F007F00
7E003F00
FE003F80
FE003F80
FE003F80
FE003F80
FE003F80
FE003F80
FE003F80
FE003F80
7E003F00
7F007F00
3F007E00
3F80FE00
1FFFFC00
0FFFF800
07FFF000
01FFC000
ENDCHAR
STARTCHAR 0070
ENCODING 112
SWIDTH 612 0
DWIDTH 30 0
BBX 25 34 3 -9
BITMAP
FE3FC000
FEFFF000
FFFFF800
FFFFFC00
FFC1FE00
FF80FE00
FF007F00
FE007F00
FE003F00
FE003F80
FE003F80
FE003F80
FE003F80
FE003F80
FE003F00
FE007F00
FE007F00
FF007F00
FF00FE00
FF81FE00
FFFFFC00
FFFFF800
FEFFF000
FE7FE000
FE000000
FE000000
FE000000
FE000000
FE000000
FE000000
FE000000
FE000000
FE000000
FE000000
ENDCHAR
STARTCHAR 0071
ENCODING 113
SWIDTH 612 0
DWIDTH 30 0
BBX 25 34 2 -9
BITMAP
03FE3F80
0FFF3F80
1FFFBF80
3FFFFF80
3FC1FF80
7F00FF80
7F007F80
7E007F80
FE003F80
FE003F80
FE003F80
FE003F80
FE003F80
FE003F80
FE003F80
FE003F80
7F007F80
7F007F80
7F80FF80
3FC1FF80
3FFFFF80
1FFFFF80
0FFFBF80
03FF3F80
00003F80
00003F80
00003F80
00003F80
00003F80
00003F80
00003F80
00003F80
00003F80
00003F80
ENDCHAR
STARTCHAR 0072
ENCODING 114
SWIDTH 387 0
DWIDTH 19 0
BBX 15 24 3 1
BITMAP
FE3E
FEFE
FEFE
FFFE
FFFE
FFFE
FFC0
FF80
FF00
FE00
FE00
FE00
FE00
FE00
FE00
FE00
FE00
FE00
FE00
FE00
FE00
FE00
FE00
FE00
ENDCHAR
STARTCHAR 0073
ENCODING 115
SWIDTH 510 0
DWIDTH 25 0
BBX 21 24 2 1
BITMAP
07FF80
1FFFC0
3FFFE0
7FFFF0
7F07F0
FE03F8
FE03F8
FE0000
7F8000
7FF800
3FFF80
1FFFC0
07FFF0
00FFF0
000FF8
0003F8
FE03F8
FE03F8
FE03F8
7F07F0
7FFFF0
3FFFE0
1FFFC0
0FFF00
ENDCHAR
STARTCHAR 0074
ENCODING 116
SWIDTH 408 0
DWIDTH 20 0
BBX 18 31 1 0
BITMAP
003000
00F000
03F000
07F000
07F000
07F000
07F000
FFFF80
FFFF80
FFFF80
FFFF80
07F000
07F000
07F000
07F000
07F000
07F000
07F000
07F000
07F000
07F000
07F000
07F000
07F000
07F000
07F000
07F800
07FFC0
03FFC0
01FFC0
00FFC0
ENDCHAR
STARTCHAR 0075
ENCODING 117
SWIDTH 591 0
DWIDTH 29 0
BBX 23 24 3 0
BITMAP
FE00FE
FE00FE
FE00FE
FE00FE
FE00FE
FE00FE
FE00FE
FE00FE
FE00FE
FE00FE
FE00FE
FE00FE
FE00FE
FE00FE
FE00FE
FE00FE
FE00FE
FE00FE
FF01FE
FF03FE
7FFFFE
7FFFFE
3FFEFE
0FF8FE
ENDCHAR
STARTCHAR 0076
ENCODING 118
SWIDTH 551 0
DWIDTH 27 0
BBX 25 24 1 0
BITMAP
FE003F80
FE003F80
FE007F00
7F007F00
7F007E00
3F00FE00
3F80FE00
3F81FC00
1F81FC00
1FC1FC00
0FC3F800
0FE3F800
0FE3F000
07E7F000
07F7F000
07F7E000
03FFE000
03FFC000
01FFC000
01FFC000
01FF8000
00FF8000
00FF8000
00FF0000
ENDCHAR
STARTCHAR 0077
ENCODING 119
SWIDTH 857 0
DWIDTH 42 0
BBX 40 24 1 0
BITMAP
FC00FF007F
FE00FF007F
FE01FF807F
7E01FF807E
7F01FF80FE
7F03FFC0FE
3F03FFC0FC
3F83FFC1FC
3F87FFE1FC
3F87E7E1F8
1F87E7E1F8
1FCFE7F3F8
1FCFC3F3F8
0FCFC3F3F0
0FFFC3FFF0
0FFF81FFF0
07FF81FFE0
07FF81FFE0
07FF81FFE0
03FF00FFC0
03FF00FFC0
03FF00FFC0
01FE007F80
01FE007F80
ENDCHAR
STARTCHAR 0078
ENCODING 120
SWIDTH 551 0
DWIDTH 27 0
BBX 25 24 1 0
BITMAP
7F007F00
7F80FE00
3FC0FE00
1FE1FC00
0FE3F800
0FF3F800
07FFF000
03FFE000
03FFE000
01FFC000
00FF8000
00FF8000
01FFC000
01FFC000
03FFE000
07FFF000
07E7F000
0FE7F800
1FC3FC00
1FC1FC00
3F81FE00
7F00FF00
FF00FF00
FE007F80
ENDCHAR
STARTCHAR 0079
ENCODING 121
SWIDTH 551 0
DWIDTH 27 0
BBX 25 34 1 -10
BITMAP
FE003F80
FF003F80
FF007F00
7F007F00
7F807F00
3F80FE00
3F80FE00
3FC1FC00
1FC1FC00
1FC1FC00
0FE3F800
0FE3F800
07F3F800
07F7F000
07F7F000
03FFF000
03FFE000
01FFE000
01FFC000
01FFC000
00FFC000
00FF8000
007F8000
007F8000
007F0000
007F0000
007F0000
00FE0000
00FE0000
01FC0000
01FC0000
01FC0000
03F80000
03F80000
ENDCHAR
STARTCHAR 007A
ENCODING 122
SWIDTH 489 0
DWIDTH 24 0
BBX 20 24 2 0
BITMAP
FFFFF0
FFFFF0
FFFFF0
FFFFF0
0007F0
000FF0
001FE0
003FC0
007F80
00FF00
01FE00
03FC00
03F800
07F000
0FF000
1FE000
3FC000
7F8000
FF0000
FE0000
FFFFF0
FFFFF0
FFFFF0
FFFFF0
ENDCHAR
STARTCHAR 007B
ENCODING 123
SWIDTH 510 0
DWIDTH 25 0
BBX 18 48 4 -12
BITMAP
001FC0
007FC0
00FFC0
01FFC0
01FC00
03F800
03F800
03F800
03F800
03F800
03F800
03F800
03F800
03F800
03F800
03F000
03F000
03F000
07F000
07F000
0FE000
7FC000
FF8000
FE0000
FE0000
FF8000
7FC000
1FE000
0FF000
07F000
07F000
03F000
03F000
03F800
03F800
03F800
03F800
03F800
03F800
03F800
03F800
03F800
03F800
01FE00
01FFC0
00FFC0
007FC0
000FC0
ENDCHAR
STARTCHAR 007C
ENCODING 124
SWIDTH 346 0
DWIDTH 17 0
BBX 3 51 7 -13
BITMAP
E0
E0
E0
E0
E0
E0
E0
E0
E0
E0
E0
E0
E0
E0
E0
E0
E0
E0
E0
E0
E0
E0
E0
E0
E0
E0
E0
E0
E0
E0
E0
E0
E0
E0
E0
E0
E0
E0
E0
E0
E0
E0
E0
E0
E0
E0
E0
E0
E0
E0
E0
ENDCHAR
STARTCHAR 007D
ENCODING 125
SWIDTH 510 0
DWIDTH 25 0
BBX 18 48 4 -12
BITMAP
FC0000
FF8000
FFC000
FFE000
1FE000
0FE000
07F000
07F000
07F000
07F000
07F000
07F000
07F000
07F000
07F000
07F000
07F000
03F000
03F800
03F800
01FC00
00FF00
007FC0
003FC0
003FC0
007FC0
01FE00
01FC00
03F800
03F000
07F000
07F000
07F000
07F000
07F000
07F000
07F000
07F000
07F000
07F000
07F000
07E000
0FE000
1FE000
FFE000
FFC000
FF8000
FC0000
ENDCHAR
STARTCHAR 007E
ENCODING 126
SWIDTH 530 0
DWIDTH 26 0
BBX 26 6 0 10
BITMAP
07F007C0
1FFF1FC0
3FFFFF80
7FFFFF00
7E3FFE00
F803F800
ENDCHAR
STARTCHAR 00A0
ENCODING 160
SWIDTH 306 0
DWIDTH 15 0
BBX 0 0 0 0
BITMAP
ENDCHAR
STARTCHAR 00A1
ENCODING 161
SWIDTH 408 0
DWIDTH 20 0
BBX 7 34 6 -10
BITMAP
FE
FE
FE
FE
FE
FE
00
00
00
FE
FE
FE
FE
FE
FE
FE
FE
FE
FE
FE
FE
FE
FE
FE
FE
FE
FE
FE
FE
FE
FE
FE
FE
FE
ENDCHAR
STARTCHAR 00A2
ENCODING 162
SWIDTH 571 0
DWIDTH 28 0
BBX 22 37 3 -7
BITMAP
000180
0001C0
0001C0
000380
000380
000380
03FF80
07FFE0
1FFFF0
3FFFF8
3F8FF8
7F0FFC
7E0DFC
7E1DFC
FE1C00
FE1800
FE3800
FE3800
FE3000
FE7000
FE7000
FE61FC
FEE1FC
7EE1FC
7FC1FC
7FC3F8
3FFFF8
1FFFF0
0FFFE0
03FF80
038000
070000
070000
070000
0E0000
0E0000
020000
ENDCHAR
STARTCHAR 00A3
ENCODING 163
SWIDTH 571 0
DWIDTH 28 0
BBX 24 35 3 1
BITMAP
00FFF0
03FFFC
07FFFE
0FFFFE
0FE0FF
0FE07F
1FC07F
1FC07F
1FC000
1FC000
1FC000
1FC000
1FC000
FFFF80
FFFF80
FFFF80
FFFF80
1FC000
1FC000
1FC000
1FC000
1FC000
1FC000
1FC000
1FC000
1FC000
1FC000
1FC000
1FC000
1FC000
1FC000
FFFFFF
FFFFFF
FFFFFF
FFFFFF
ENDCHAR
STARTCHAR 00A4
ENCODING 164
SWIDTH 612 0
DWIDTH 30 0
BBX 25 25 3 9
BITMAP
C0000180
E0000380
703E0700
39FF8E00
1FFFFC00
0FC1F800
0F007800
1E003C00
1C001C00
38001C00
38000E00
38000E00
38000E00
38000E00
38000E00
38001C00
1C001C00
1E003C00
0F007800
0F80F800
1FFFFC00
39FFCE00
707F0700
E0000380
C0000180
ENDCHAR
STARTCHAR 00A5
ENCODING 165
SWIDTH 591 0
DWIDTH 29 0
BBX 27 35 1 0
BITMAP
FE000FE0
FE001FE0
7F001FC0
7F001FC0
3F803F80
3F803F80
3FC07F00
1FC07F00
1FC0FE00
0FE0FE00
FFE1FFE0
FFF1FFE0
FFF3FFE0
03FBF800
03FBF000
01FFF000
01FFE000
00FFE000
00FFE000
FFFFFFE0
FFFFFFE0
FFFFFFE0
003F8000
003F8000
003F8000
003F8000
003F8000
003F8000
003F8000
003F8000
003F8000
003F8000
003F8000
003F8000
003F8000
ENDCHAR
STARTCHAR 00A6
ENCODING 166
SWIDTH 346 0
DWIDTH 17 0
BBX 3 45 7 -10
BITMAP
E0
E0
E0
E0
E0
E0
E0
E0
E0
E0
E0
E0
E0
E0
E0
E0
E0
E0
E0
00
00
00
00
00
00
00
E0
E0
E0
E0
E0
E0
E0
E0
E0
E0
E0
E0
E0
E0
E0
E0
E0
E0
E0
ENDCHAR
STARTCHAR 00A7
ENCODING 167
SWIDTH 469 0
DWIDTH 23 0
BBX 19 43 2 -7
BITMAP
07FF00
0FFF80
1FFF80
3FFF80
7F0380
7E0080
FE0000
FE0000
FE0000
7F0000
7FC000
3FE000
1FF800
0FFE00
07FF00
1FFF80
3FFFC0
7F1FC0
7E0FE0
FE07E0
FC07E0
FC07E0
FC0FC0
FE1FC0
FF3F80
7FFF00
3FFE00
1FFC00
0FFF00
03FF80
00FFC0
003FC0
001FE0
000FE0
0007E0
0007E0
0007E0
C00FC0
F03FC0
FFFF80
FFFF00
FFFC00
1FF000
ENDCHAR
STARTCHAR 00A8
ENCODING 168
SWIDTH 306 0
DWIDTH 15 0
BBX 15 6 0 31
BITMAP
F83E
F83E
F83E
F83E
F83E
F83E
ENDCHAR
STARTCHAR 00A9
ENCODING 169
SWIDTH 877 0
DWIDTH 43 0
BBX 37 36 3 0
BITMAP
0000200000
000FFF8000
003FFFE000
00FFFFF800
01F800FC00
03E0003E00
0780000F00
0F01FE0780
1E07FF83C0
3C0FFFC1E0
381FFFE0E0
781F87E0F0
703F07F070
703E03F070
F07E03F078
E07E000038
E07E000038
E07E000038
E07E000038
E07E000038
E07E03F038
E07E03F038
E03E03F078
703F07F070
703F87E070
781FFFE0F0
380FFFC0E0
3C07FF81E0
1E01FE03C0
0F00000780
0780000F00
03E0003E00
01F800FC00
00FFFFF800
003FFFE000
000FFF8000
ENDCHAR
STARTCHAR 00AA
ENCODING 170
SWIDTH 387 0
DWIDTH 19 0
BBX 17 23 1 12
BITMAP
03F000
0FFC00
1FFE00
3E1F00
3E1F00
001F00
03FF00
1FFF00
3FFF00
3E1F00
7C1F00
7C1F00
7C1F00
7C1F00
7E3F00
3FFF00
1FCF00
0F8000
000000
000000
000000
FFFF80
FFFF80
ENDCHAR
STARTCHAR 00AB
ENCODING 171
SWIDTH 612 0
DWIDTH 30 0
BBX 24 19 3 3
BITMAP
07E07F
0FE07E
0FC0FE
1FC0FC
3F81FC
3F83F8
7F03F8
7F07F8
FE07F0
FE0FF0
FE07F0
7F07F8
7F03F8
3F83F8
3F81FC
1FC0FC
0FC0FE
0FE07E
07E07F
ENDCHAR
STARTCHAR 00AC
ENCODING 172
SWIDTH 612 0
DWIDTH 30 0
BBX 26 11 2 10
BITMAP
FFFFFFC0
FFFFFFC0
FFFFFFC0
000001C0
000001C0
000001C0
000001C0
000001C0
000001C0
000001C0
000001C0
ENDCHAR
STARTCHAR 00AE
ENCODING 174
SWIDTH 877 0
DWIDTH 43 0
BBX 37 36 3 0
BITMAP
0000200000
000FFF8000
003FFFE000
00FFFFF800
01F800FC00
03E0003E00
0780000F00
0F00000780
1E1FFE03C0
3C1FFF81E0
381FFFC0E0
781E07E0F0
701E01E070
701E01E070
F01E01E078
E01E03E038
E01E07C038
E01FFF0038
E01FFE0038
E01FFF8038
E01E07C038
E01E03C038
E01E03C078
701E03C070
701E01E070
781E01E0F0
381E01E0E0
3C1E01E1E0
1E1E01E3C0
0F00000780
0780000F00
03E0003E00
01F800FC00
00FFFFF800
003FFFE000
000FFF8000
ENDCHAR
STARTCHAR 00AF
ENCODING 175
SWIDTH 326 0
DWIDTH 16 0
BBX 16 4 0 31
BITMAP
FFFF
FFFF
FFFF
FFFF
ENDCHAR
STARTCHAR 00B0
ENCODING 176
SWIDTH 306 0
DWIDTH 15 0
BBX 11 11 2 24
BITMAP
1F00
3F80
71C0
E0E0
C060
C060
C060
E0E0
71C0
3F80
1F00
ENDCHAR
STARTCHAR 00B1
ENCODING 177
SWIDTH 1000 0
DWIDTH 49 0
BBX 29 29 10 0
BITMAP
00070000
00070000
00070000
00070000
00070000
00070000
00070000
00070000
00070000
FFFFFFF8
FFFFFFF8
FFFFFFF8
00070000
00070000
00070000
00070000
00070000
00070000
00070000
00070000
00070000
00000000
00000000
00000000
00000000
00000000
FFFFFFF8
FFFFFFF8
FFFFFFF8
ENDCHAR
STARTCHAR 00B2
ENCODING 178
SWIDTH 346 0
DWIDTH 17 0
BBX 15 19 1 17
BITMAP
1FF0
3FF8
7EFC
F83E
F83E
003E
007E
007C
00FC
01F8
03F0
07E0
0FC0
1F00
7E00
F800
FFFE
FFFE
FFFE
ENDCHAR
STARTCHAR 00B3
ENCODING 179
SWIDTH 387 0
DWIDTH 19 0
BBX 15 19 2 17
BITMAP
1FE0
7FF8
7EF8
F87C
F87C
007C
00FC
07F8
07E0
07F8
007C
003E
003E
F83E
F83E
FC7C
7FF8
3FF0
0FC0
ENDCHAR
STARTCHAR 00B4
ENCODING 180
SWIDTH 224 0
DWIDTH 11 0
BBX 10 9 2 29
BITMAP
0FC0
0FC0
1F80
1F00
3E00
3C00
7C00
7800
F000
ENDCHAR
STARTCHAR 00B6
ENCODING 182
SWIDTH 571 0
DWIDTH 28 0
BBX 23 43 3 -8
BITMAP
01FFFE
0FFFFE
1FF070
3FF070
7FF070
FFF070
FFF070
FFF070
FFF070
FFF070
FFF070
FFF070
FFF070
7FF070
7FF070
3FF070
0FF070
01F070
007070
007070
007070
007070
007070
007070
007070
007070
007070
007070
007070
007070
007070
007070
007070
007070
007070
007070
007070
007070
007070
007070
007070
007070
007070
ENDCHAR
STARTCHAR 00B7
ENCODING 183
SWIDTH 285 0
DWIDTH 14 0
BBX 7 6 4 13
BITMAP
FE
FE
FE
FE
FE
FE
ENDCHAR
STARTCHAR 00B8
ENCODING 184
SWIDTH 244 0
DWIDTH 12 0
BBX 12 12 2 -12
BITMAP
1C00
1C00
1C00
1FC0
1FE0
03F0
00F0
00F0
00F0
FFF0
FFE0
FF00
ENDCHAR
STARTCHAR 00B9
ENCODING 185
SWIDTH 285 0
DWIDTH 14 0
BBX 9 19 2 17
BITMAP
0F80
1F80
7F80
FF80
EF80
8F80
0F80
0F80
0F80
0F80
0F80
0F80
0F80
0F80
0F80
0F80
0F80
0F80
0F80
ENDCHAR
STARTCHAR 00BA
ENCODING 186
SWIDTH 408 0
DWIDTH 20 0
BBX 18 23 1 11
BITMAP
03F000
0FFC00
1FFE00
3E1F00
7C0F80
7C0F80
F807C0
F807C0
F807C0
F807C0
F807C0
F807C0
7C0F80
7C0F80
3E1F00
1FFE00
0FFC00
03F000
000000
000000
000000
7FFFC0
7FFFC0
ENDCHAR
STARTCHAR 00BB
ENCODING 187
SWIDTH 612 0
DWIDTH 30 0
BBX 24 19 3 3
BITMAP
FC0FE0
FE07E0
7E07F0
7F03F8
3F83F8
3F81FC
1FC1FC
1FC0FE
0FE0FE
0FE07F
0FE0FE
1FC0FE
1FC1FC
3F81FC
3F83F8
7F03F8
7E07F0
FE07E0
FC0FE0
ENDCHAR
STARTCHAR 00BC
ENCODING 188
SWIDTH 795 0
DWIDTH 39 0
BBX 35 37 2 -1
BITMAP
0F8000F800
1F8000F800
7F8001F000
FF8001F000
EF8003E000
8F8007E000
0F8007C000
0F800F8000
0F800F8000
0F801F0000
0F801F0000
0F803E0000
0F803E0000
0F807C0000
0F80F80000
0F80F80000
0F81F00000
0F81F00000
0F83E01F80
0003E03F80
0007C07F80
0007807F80
000F80FF80
001F01EF80
001F01EF80
003E03CF80
003E078F80
007C0F8F80
007C0F0F80
00F81F0F80
01F01FFFE0
01F01FFFE0
03E01FFFE0
03E0000F80
07C0000F80
07C0000F80
0F80000F80
ENDCHAR
STARTCHAR 00BD
ENCODING 189
SWIDTH 795 0
DWIDTH 39 0
BBX 35 36 2 0
BITMAP
0F8001F000
1F8001F000
7F8003E000
FF8003E000
EF8007C000
8F80078000
0F800F8000
0F801F0000
0F801F0000
0F803E0000
0F803E0000
0F807C0000
0F80780000
0F80F80000
0F81F00000
0F81F00000
0F83E00000
0F83E0FE00
0F87C3FF80
000787FFC0
000F87C7E0
001F0F83E0
001F0003E0
003E0003E0
003E0007E0
007C000FC0
0078001F80
00F8003F00
01F0007E00
01F000FC00
03E001F800
03E007E000
07C00F8000
07800FFFE0
0F800FFFE0
1F000FFFE0
ENDCHAR
STARTCHAR 00BE
ENCODING 190
SWIDTH 816 0
DWIDTH 40 0
BBX 36 36 2 0
BITMAP
1FE0001F00
7FF8003E00
7EF8003E00
F87C007C00
F87C00FC00
007C00F800
00FC01F000
07F801F000
07E003E000
07F803E000
007C07C000
003E0FC000
003E0F8000
F83E1F0000
F83E1F0000
FC7C3E0000
7FF83E0000
3FF07C0FC0
0FC0F81FC0
0000F83FC0
0001F03FC0
0001F07FC0
0003E0FFC0
0003E0F7C0
0007C1E7C0
000F83E7C0
000F87C7C0
001F0787C0
001F0F87C0
003E0FFFF0
003E0FFFF0
007C0FFFF0
00F80007C0
00F80007C0
01F00007C0
01F00007C0
ENDCHAR
STARTCHAR 00BF
ENCODING 191
SWIDTH 530 0
DWIDTH 26 0
BBX 22 34 2 -10
BITMAP
007E00
007E00
007E00
007E00
007E00
000000
000000
000000
003E00
003E00
003E00
003E00
003E00
007E00
00FC00
01F800
03F000
0FE000
1FC000
3F8000
7F0000
7E0000
FE0000
FE0000
FE0040
FE0070
FE00F8
FF01FC
7F83F8
7FFFF8
3FFFF0
1FFFE0
07FF80
00FE00
ENDCHAR
STARTCHAR 00C0
ENCODING 192
SWIDTH 714 0
DWIDTH 35 0
BBX 33 49 1 0
BITMAP
00FC000000
007E000000
003E000000
001F000000
001F000000
000F800000
0007800000
0003C00000
0001E00000
0000000000
0000000000
0000000000
0000000000
0000000000
0007F00000
000FF80000
000FF80000
001FF80000
001FFC0000
001FFC0000
003FFE0000
003FFE0000
003F7E0000
007F7F0000
007E7F0000
00FE3F0000
00FE3F8000
00FC3F8000
01FC1FC000
01FC1FC000
03F81FC000
03F80FE000
03F80FE000
07F00FE000
07F007F000
07F007F000
0FFFFFF800
0FFFFFF800
1FFFFFF800
1FFFFFFC00
1FFFFFFC00
3FFFFFFC00
3F8001FE00
3F8000FE00
7F0000FF00
7F00007F00
FF00007F00
FE00003F80
FE00003F80
ENDCHAR
STARTCHAR 00C1
ENCODING 193
SWIDTH 714 0
DWIDTH 35 0
BBX 33 49 1 0
BITMAP
00003F8000
00003F0000
00007E0000
00007C0000
0000F80000
0000F00000
0001E00000
0001E00000
0003C00000
0000000000
0000000000
0000000000
0000000000
0000000000
0007F00000
000FF80000
000FF80000
001FF80000
001FFC0000
001FFC0000
003FFE0000
003FFE0000
003F7E0000
007F7F0000
007E7F0000
00FE3F0000
00FE3F8000
00FC3F8000
01FC1FC000
01FC1FC000
03F81FC000
03F80FE000
03F80FE000
07F00FE000
07F007F000
07F007F000
0FFFFFF800
0FFFFFF800
1FFFFFF800
1FFFFFFC00
1FFFFFFC00
3FFFFFFC00
3F8001FE00
3F8000FE00
7F0000FF00
7F00007F00
FF00007F00
FE00003F80
FE00003F80
ENDCHAR
STARTCHAR 00C2
ENCODING 194
SWIDTH 714 0
DWIDTH 35 0
BBX 33 49 1 0
BITMAP
0007F00000
000FF00000
000FF80000
001FF80000
001F7C0000
003E3C0000
003C1E0000
00780E0000
00700F0000
0000000000
0000000000
0000000000
0000000000
0000000000
0007F00000
000FF80000
000FF80000
001FF80000
001FFC0000
001FFC0000
003FFE0000
003FFE0000
003F7E0000
007F7F0000
007E7F0000
00FE3F0000
00FE3F8000
00FC3F8000
01FC1FC000
01FC1FC000
03F81FC000
03F80FE000
03F80FE000
07F00FE000
07F007F000
07F007F000
0FFFFFF800
0FFFFFF800
1FFFFFF800
1FFFFFFC00
1FFFFFFC00
3FFFFFFC00
3F8001FE00
3F8000FE00
7F0000FF00
7F00007F00
FF00007F00
FE00003F80
FE00003F80
ENDCHAR
STARTCHAR 00C3
ENCODING 195
SWIDTH 714 0
DWIDTH 35 0
BBX 33 47 1 0
BITMAP
0000030000
001F870000
003FFF0000
007FFE0000
007FFE0000
0070F80000
0060000000
0000000000
0000000000
0000000000
0000000000
0000000000
0007F00000
000FF80000
000FF80000
001FF80000
001FFC0000
001FFC0000
003FFE0000
003FFE0000
003F7E0000
007F7F0000
007E7F0000
00FE3F0000
00FE3F8000
00FC3F8000
01FC1FC000
01FC1FC000
03F81FC000
03F80FE000
03F80FE000
07F00FE000
07F007F000
07F007F000
0FFFFFF800
0FFFFFF800
1FFFFFF800
1FFFFFFC00
1FFFFFFC00
3FFFFFFC00
3F8001FE00
3F8000FE00
7F0000FF00
7F00007F00
FF00007F00
FE00003F80
FE00003F80
ENDCHAR
STARTCHAR 00C4
ENCODING 196
SWIDTH 714 0
DWIDTH 35 0
BBX 33 47 1 0
BITMAP
007C1F0000
007C1F0000
007C1F0000
007C1F0000
007C1F0000
007C1F0000
0000000000
0000000000
0000000000
0000000000
0000000000
0000000000
0007F00000
000FF80000
000FF80000
000FF80000
001FFC0000
001FFC0000
003FFE0000
003FFE0000
003F7E0000
007F7F0000
007F7F0000
007E3F0000
00FE3F8000
00FE3F8000
00FC1F8000
01FC1FC000
01FC1FC000
03F80FE000
03F80FE000
03F00FE000
07F007F000
07F007F000
07FFFFF000
0FFFFFF800
0FFFFFF800
1FFFFFFC00
1FFFFFFC00
1FFFFFFC00
3F8001FE00
3F8000FE00
3F8000FE00
7F00007F00
7F00007F00
FF00007F80
FE00003F80
ENDCHAR
STARTCHAR 00C5
ENCODING 197
SWIDTH 714 0
DWIDTH 35 0
BBX 34 52 1 0
BITMAP
0001E00000
0007F80000
000FFC0000
000E1C0000
001C0E0000
001C0E0000
001C0E0000
001C0E0000
000E1C0000
000FFC0000
0007F80000
0001E00000
0000000000
0000000000
0000000000
0000000000
0000000000
0007F80000
0007F80000
000FFC0000
000FFC0000
000FFC0000
001FFE0000
001FFE0000
003FFF0000
003FFF0000
003F3F0000
007F3F8000
007F3F8000
00FE1F8000
00FE1FC000
00FE1FC000
01FC0FE000
01FC0FE000
01F80FE000
03F807F000
03F807F000
07F007F000
07F003F800
07FFFFF800
0FFFFFFC00
0FFFFFFC00
0FFFFFFC00
1FFFFFFE00
1FFFFFFE00
3FC000FF00
3F80007F00
3F80007F00
7F00007F80
7F00003F80
7F00003F80
FE00001FC0
ENDCHAR
STARTCHAR 00C6
ENCODING 198
SWIDTH 1020 0
DWIDTH 50 0
BBX 46 35 1 0
BITMAP
00001FFFFFFC
00003FFFFFFC
00003FFFFFFC
00007FFFFFFC
00007FFFFFFC
0000FFF80000
0000FFF80000
0001FFF80000
0003FBF80000
0003FBF80000
0007F3F80000
0007E3F80000
000FE3F80000
000FC3F80000
001FC3FFFFF8
001F83FFFFF8
003F83FFFFF8
003F03FFFFF8
007F03FFFFF8
00FE03F80000
00FE03F80000
01FFFFF80000
01FFFFF80000
03FFFFF80000
03FFFFF80000
07FFFFF80000
07E003F80000
0FE003F80000
0FC003F80000
1FC003F80000
3F8003FFFFFC
3F8003FFFFFC
7F0003FFFFFC
7F0003FFFFFC
FE0003FFFFFC
ENDCHAR
STARTCHAR 00C7
ENCODING 199
SWIDTH 734 0
DWIDTH 36 0
BBX 30 47 3 -11
BITMAP
003FFC00
00FFFF00
03FFFFC0
07FFFFE0
0FFFFFE0
1FFFFFF0
1FE00FF8
3FC007F8
3F8003F8
7F0003F8
7F0001FC
7F0001FC
FE000000
FE000000
FE000000
FE000000
FE000000
FE000000
FE000000
FE000000
FE000000
FE000000
FE000000
7E000000
7F0003FC
7F0003FC
3F0003FC
3F8007F8
1FC007F8
1FE00FF0
0FFFFFE0
07FFFFC0
03FFFF80
01FFFF00
007FFC00
00030000
00030000
0003C000
0003F800
0003FC00
00003E00
00001E00
00001E00
00003E00
001FFC00
001FF800
0007C000
ENDCHAR
STARTCHAR 00C8
ENCODING 200
SWIDTH 612 0
DWIDTH 30 0
BBX 24 49 3 0
BITMAP
0FC000
07E000
03E000
03F000
01F000
00F800
007800
003C00
001E00
000000
000000
000000
000000
000000
FFFFFF
FFFFFF
FFFFFF
FFFFFF
FFFFFF
FFFFFF
FE0000
FE0000
FE0000
FE0000
FE0000
FE0000
FE0000
FE0000
FFFFFE
FFFFFE
FFFFFE
FFFFFE
FFFFFE
FE0000
FE0000
FE0000
FE0000
FE0000
FE0000
FE0000
FE0000
FE0000
FE0000
FFFFFF
FFFFFF
FFFFFF
FFFFFF
FFFFFF
FFFFFF
ENDCHAR
STARTCHAR 00C9
ENCODING 201
SWIDTH 612 0
DWIDTH 30 0
BBX 24 49 3 0
BITMAP
0007E0
000FE0
000FC0
001F80
001F00
003E00
003C00
007800
007000
000000
000000
000000
000000
000000
FFFFFF
FFFFFF
FFFFFF
FFFFFF
FFFFFF
FFFFFF
FE0000
FE0000
FE0000
FE0000
FE0000
FE0000
FE0000
FE0000
FFFFFE
FFFFFE
FFFFFE
FFFFFE
FFFFFE
FE0000
FE0000
FE0000
FE0000
FE0000
FE0000
FE0000
FE0000
FE0000
FE0000
FFFFFF
FFFFFF
FFFFFF
FFFFFF
FFFFFF
FFFFFF
ENDCHAR
STARTCHAR 00CA
ENCODING 202
SWIDTH 612 0
DWIDTH 30 0
BBX 24 49 3 0
BITMAP
00FE00
00FF00
01FF00
01FF80
03EF80
03C7C0
0783C0
0701E0
0F00E0
000000
000000
000000
000000
000000
FFFFFF
FFFFFF
FFFFFF
FFFFFF
FFFFFF
FFFFFF
FE0000
FE0000
FE0000
FE0000
FE0000
FE0000
FE0000
FE0000
FFFFFE
FFFFFE
FFFFFE
FFFFFE
FFFFFE
FE0000
FE0000
FE0000
FE0000
FE0000
FE0000
FE0000
FE0000
FE0000
FE0000
FFFFFF
FFFFFF
FFFFFF
FFFFFF
FFFFFF
FFFFFF
ENDCHAR
STARTCHAR 00CB
ENCODING 203
SWIDTH 612 0
DWIDTH 30 0
BBX 24 47 3 0
BITMAP
0F81F0
0F81F0
0F81F0
0F81F0
0F81F0
0F81F0
000000
000000
000000
000000
000000
000000
FFFFFF
FFFFFF
FFFFFF
FFFFFF
FFFFFF
FFFFFF
FE0000
FE0000
FE0000
FE0000
FE0000
FE0000
FE0000
FE0000
FFFFFE
FFFFFE
FFFFFE
FFFFFE
FFFFFE
FE0000
FE0000
FE0000
FE0000
FE0000
FE0000
FE0000
FE0000
FE0000
FE0000
FFFFFF
FFFFFF
FFFFFF
FFFFFF
FFFFFF
FFFFFF
ENDCHAR
STARTCHAR 00CC
ENCODING 204
SWIDTH 265 0
DWIDTH 13 0
BBX 12 49 -2 0
BITMAP
FC00
7E00
3E00
1F00
0F00
0F80
0780
03C0
01C0
0000
0000
0000
0000
0000
07F0
07F0
07F0
07F0
07F0
07F0
07F0
07F0
07F0
07F0
07F0
07F0
07F0
07F0
07F0
07F0
07F0
07F0
07F0
07F0
07F0
07F0
07F0
07F0
07F0
07F0
07F0
07F0
07F0
07F0
07F0
07F0
07F0
07F0
07F0
ENDCHAR
STARTCHAR 00CD
ENCODING 205
SWIDTH 244 0
DWIDTH 12 0
BBX 11 49 3 0
BITMAP
07E0
0FC0
0F80
1F80
1F00
3E00
3C00
7800
7000
0000
0000
0000
0000
0000
FE00
FE00
FE00
FE00
FE00
FE00
FE00
FE00
FE00
FE00
FE00
FE00
FE00
FE00
FE00
FE00
FE00
FE00
FE00
FE00
FE00
FE00
FE00
FE00
FE00
FE00
FE00
FE00
FE00
FE00
FE00
FE00
FE00
FE00
FE00
ENDCHAR
STARTCHAR 00CE
ENCODING 206
SWIDTH 265 0
DWIDTH 13 0
BBX 15 49 -1 0
BITMAP
0FE0
0FE0
1FF0
1FF0
3EF8
3C78
783C
701C
F01E
0000
0000
0000
0000
0000
0FE0
0FE0
0FE0
0FE0
0FE0
0FE0
0FE0
0FE0
0FE0
0FE0
0FE0
0FE0
0FE0
0FE0
0FE0
0FE0
0FE0
0FE0
0FE0
0FE0
0FE0
0FE0
0FE0
0FE0
0FE0
0FE0
0FE0
0FE0
0FE0
0FE0
0FE0
0FE0
0FE0
0FE0
0FE0
ENDCHAR
STARTCHAR 00CF
ENCODING 207
SWIDTH 265 0
DWIDTH 13 0
BBX 15 47 -1 0
BITMAP
F83E
F83E
F83E
F83E
F83E
F83E
0000
0000
0000
0000
0000
0000
0FE0
0FE0
0FE0
0FE0
0FE0
0FE0
0FE0
0FE0
0FE0
0FE0
0FE0
0FE0
0FE0
0FE0
0FE0
0FE0
0FE0
0FE0
0FE0
0FE0
0FE0
0FE0
0FE0
0FE0
0FE0
0FE0
0FE0
0FE0
0FE0
0FE0
0FE0
0FE0
0FE0
0FE0
0FE0
ENDCHAR
STARTCHAR 00D0
ENCODING 208
SWIDTH 714 0
DWIDTH 35 0
BBX 33 35 0 0
BITMAP
0FFFE00000
0FFFFE0000
0FFFFF8000
0FFFFFC000
0FFFFFF000
0FFFFFF800
0FE01FF800
0FE007FC00
0FE001FE00
0FE000FE00
0FE000FF00
0FE0007F00
0FE0007F00
0FE0003F00
0FE0003F00
FFFFC03F80
FFFFC03F80
FFFFC03F80
FFFFC03F80
0FE0003F80
0FE0003F00
0FE0003F00
0FE0007F00
0FE0007F00
0FE000FF00
0FE000FE00
0FE001FE00
0FE007FC00
0FE01FF800
0FFFFFF800
0FFFFFF000
0FFFFFC000
0FFFFF8000
0FFFFE0000
0FFFE00000
ENDCHAR
STARTCHAR 00D1
ENCODING 209
SWIDTH 755 0
DWIDTH 37 0
BBX 31 47 3 0
BITMAP
00000600
003F0E00
007FFE00
00FFFC00
00FFFC00
00E1F000
01C00000
00000000
00000000
00000000
00000000
00000000
FFC000FE
FFE000FE
FFE000FE
FFF000FE
FFF000FE
FFF800FE
FFF800FE
FFFC00FE
FFFC00FE
FEFE00FE
FEFE00FE
FE7F00FE
FE7F00FE
FE3F80FE
FE3F80FE
FE1FC0FE
FE1FC0FE
FE0FE0FE
FE0FE0FE
FE07F0FE
FE07F0FE
FE03F8FE
FE03F8FE
FE01FCFE
FE01FCFE
FE00FEFE
FE00FEFE
FE007FFE
FE007FFE
FE003FFE
FE003FFE
FE001FFE
FE001FFE
FE000FFE
FE000FFE
ENDCHAR
STARTCHAR 00D2
ENCODING 210
SWIDTH 795 0
DWIDTH 39 0
BBX 33 49 3 0
BITMAP
00FC000000
007E000000
007E000000
003F000000
001F000000
000F800000
0007800000
0003C00000
0003C00000
0000000000
0000000000
0000000000
0000000000
0000000000
003FFE0000
00FFFF8000
03FFFFE000
07FFFFF000
0FFFFFF800
1FFFFFFC00
1FF007FC00
3FC001FE00
3F8000FE00
7F8000FF00
7F00007F00
7F00007F00
FF00007F00
FE00003F80
FE00003F80
FE00003F80
FE00003F80
FE00003F80
FE00003F80
FE00003F80
FE00003F80
FE00003F80
FF00007F80
7F00007F00
7F00007F00
7F8000FF00
3F8000FE00
3FC001FE00
1FF007FC00
1FFFFFFC00
0FFFFFF800
07FFFFF000
03FFFFE000
00FFFF8000
003FFE0000
ENDCHAR
STARTCHAR 00D3
ENCODING 211
SWIDTH 795 0
DWIDTH 39 0
BBX 33 49 3 0
BITMAP
00001F8000
00003F0000
00003E0000
00007E0000
00007C0000
0000F80000
0000F00000
0001E00000
0001C00000
0000000000
0000000000
0000000000
0000000000
0000000000
003FFE0000
00FFFF8000
03FFFFE000
07FFFFF000
0FFFFFF800
1FFFFFFC00
1FF007FC00
3FC001FE00
3F8000FE00
7F8000FF00
7F00007F00
7F00007F00
FF00007F00
FE00003F80
FE00003F80
FE00003F80
FE00003F80
FE00003F80
FE00003F80
FE00003F80
FE00003F80
FE00003F80
FF00007F80
7F00007F00
7F00007F00
7F8000FF00
3F8000FE00
3FC001FE00
1FF007FC00
1FFFFFFC00
0FFFFFF800
07FFFFF000
03FFFFE000
00FFFF8000
003FFE0000
ENDCHAR
STARTCHAR 00D4
ENCODING 212
SWIDTH 795 0
DWIDTH 39 0
BBX 33 49 3 0
BITMAP
0007F00000
000FF80000
000FF80000
001FFC0000
001F7C0000
003E3E0000
003C1E0000
00780F0000
0070070000
0000000000
0000000000
0000000000
0000000000
0000000000
003FFE0000
00FFFF8000
03FFFFE000
07FFFFF000
0FFFFFF800
1FFFFFFC00
1FF007FC00
3FC001FE00
3F8000FE00
7F8000FF00
7F00007F00
7F00007F00
FF00007F00
FE00003F80
FE00003F80
FE00003F80
FE00003F80
FE00003F80
FE00003F80
FE00003F80
FE00003F80
FE00003F80
FF00007F80
7F00007F00
7F00007F00
7F8000FF00
3F8000FE00
3FC001FE00
1FF007FC00
1FFFFFFC00
0FFFFFF800
07FFFFF000
03FFFFE000
00FFFF8000
003FFE0000
ENDCHAR
STARTCHAR 00D5
ENCODING 213
SWIDTH 795 0
DWIDTH 39 0
BBX 33 47 3 0
BITMAP
0000030000
001F870000
003FFF0000
007FFE0000
007FFE0000
0070F80000
0060000000
0000000000
0000000000
0000000000
0000000000
0000000000
003FFE0000
00FFFF8000
03FFFFE000
07FFFFF000
0FFFFFF800
1FFFFFFC00
1FF007FC00
3FC001FE00
3F8000FE00
7F8000FF00
7F00007F00
7F00007F00
FF00007F00
FE00003F80
FE00003F80
FE00003F80
FE00003F80
FE00003F80
FE00003F80
FE00003F80
FE00003F80
FE00003F80
FF00007F80
7F00007F00
7F00007F00
7F8000FF00
3F8000FE00
3FC001FE00
1FF007FC00
1FFFFFFC00
0FFFFFF800
07FFFFF000
03FFFFE000
00FFFF8000
003FFE0000
ENDCHAR
STARTCHAR 00D6
ENCODING 214
SWIDTH 795 0
DWIDTH 39 0
BBX 33 47 3 0
BITMAP
007C1F0000
007C1F0000
007C1F0000
007C1F0000
007C1F0000
007C1F0000
0000000000
0000000000
0000000000
0000000000
0000000000
0000000000
003FFE0000
00FFFF8000
03FFFFE000
07FFFFF000
0FFFFFF800
1FFFFFFC00
1FF007FC00
3FC001FE00
3F8000FE00
7F8000FF00
7F00007F00
7F00007F00
FF00007F00
FE00003F80
FE00003F80
FE00003F80
FE00003F80
FE00003F80
FE00003F80
FE00003F80
FE00003F80
FE00003F80
FF00007F80
7F00007F00
7F00007F00
7F8000FF00
3F8000FE00
3FC001FE00
1FF007FC00
1FFFFFFC00
0FFFFFF800
07FFFFF000
03FFFFE000
00FFFF8000
003FFE0000
ENDCHAR
STARTCHAR 00D7
ENCODING 215
SWIDTH 1000 0
DWIDTH 49 0
BBX 27 25 11 2
BITMAP
600000C0
700001C0
38000380
1C000700
0E000E00
07001C00
03803800
01C07000
00E0E000
0071C000
003B8000
001F0000
001F0000
003F8000
007BC000
00F1E000
01E0F000
03C07800
07803C00
0F001E00
1E000F00
3C000780
780003C0
F00001E0
600000C0
ENDCHAR
STARTCHAR 00D8
ENCODING 216
SWIDTH 795 0
DWIDTH 39 0
BBX 37 39 1 -2
BITMAP
0000000060
00000000F0
000FFF80F8
003FFFE1F0
00FFFFFBE0
01FFFFFFC0
03FFFFFF80
07FFFFFF80
07FC01FF00
0FF0007F80
0FE0007F80
1FE000FFC0
1FC001FFC0
1FC003FFC0
3FC007DFC0
3F800F8FE0
3F801F0FE0
3F803E0FE0
3F807C0FE0
3F80F80FE0
3F81F00FE0
3F83E00FE0
3F87C00FE0
3F8F800FE0
3FDF001FE0
1FFE001FC0
1FFC001FC0
1FF8003FC0
0FF0003F80
0FF0007F80
07FC01FF00
0FFFFFFF00
0FFFFFFE00
1FFFFFFC00
3EFFFFF800
7C3FFFE000
F80FFF8000
7000000000
3000000000
ENDCHAR
STARTCHAR 00D9
ENCODING 217
SWIDTH 734 0
DWIDTH 36 0
BBX 30 49 3 0
BITMAP
03F80000
01F80000
00FC0000
007C0000
003E0000
003E0000
001F0000
000F0000
00078000
00000000
00000000
00000000
00000000
00000000
FE0001FC
FE0001FC
FE0001FC
FE0001FC
FE0001FC
FE0001FC
FE0001FC
FE0001FC
FE0001FC
FE0001FC
FE0001FC
FE0001FC
FE0001FC
FE0001FC
FE0001FC
FE0001FC
FE0001FC
FE0001FC
FE0001FC
FE0001FC
FE0001FC
FE0001FC
FE0001FC
FE0001FC
FF0003FC
7F0003F8
7F0007F8
7F8007F8
3FE01FF0
3FFFFFE0
1FFFFFE0
0FFFFFC0
07FFFF80
03FFFE00
00FFF800
ENDCHAR
STARTCHAR 00DA
ENCODING 218
SWIDTH 734 0
DWIDTH 36 0
BBX 30 49 3 0
BITMAP
00007F00
00007E00
0000FC00
0000F800
0001F000
0001E000
0003E000
0003C000
00078000
00000000
00000000
00000000
00000000
00000000
FE0001FC
FE0001FC
FE0001FC
FE0001FC
FE0001FC
FE0001FC
FE0001FC
FE0001FC
FE0001FC
FE0001FC
FE0001FC
FE0001FC
FE0001FC
FE0001FC
FE0001FC
FE0001FC
FE0001FC
FE0001FC
FE0001FC
FE0001FC
FE0001FC
FE0001FC
FE0001FC
FE0001FC
FF0003FC
7F0003F8
7F0007F8
7F8007F8
3FE01FF0
3FFFFFE0
1FFFFFE0
0FFFFFC0
07FFFF80
03FFFE00
00FFF800
ENDCHAR
STARTCHAR 00DB
ENCODING 219
SWIDTH 734 0
DWIDTH 36 0
BBX 30 49 3 0
BITMAP
001FE000
003FE000
003FF000
007FF000
007CF800
00F8F800
00F07C00
01F03C00
01E01E00
00000000
00000000
00000000
00000000
00000000
FE0001FC
FE0001FC
FE0001FC
FE0001FC
FE0001FC
FE0001FC
FE0001FC
FE0001FC
FE0001FC
FE0001FC
FE0001FC
FE0001FC
FE0001FC
FE0001FC
FE0001FC
FE0001FC
FE0001FC
FE0001FC
FE0001FC
FE0001FC
FE0001FC
FE0001FC
FE0001FC
FE0001FC
FF0003FC
7F0003F8
7F0007F8
7F8007F8
3FE01FF0
3FFFFFE0
1FFFFFE0
0FFFFFC0
07FFFF80
03FFFE00
00FFF800
ENDCHAR
STARTCHAR 00DC
ENCODING 220
SWIDTH 734 0
DWIDTH 36 0
BBX 30 48 3 0
BITMAP
01F03E00
01F03E00
01F03E00
01F03E00
01F03E00
01F03E00
00000000
00000000
00000000
00000000
00000000
00000000
00000000
FE0001FC
FE0001FC
FE0001FC
FE0001FC
FE0001FC
FE0001FC
FE0001FC
FE0001FC
FE0001FC
FE0001FC
FE0001FC
FE0001FC
FE0001FC
FE0001FC
FE0001FC
FE0001FC
FE0001FC
FE0001FC
FE0001FC
FE0001FC
FE0001FC
FE0001FC
FE0001FC
FE0001FC
FF0003FC
7F0003F8
7F0007F8
7F8007F8
3FE01FF0
3FFFFFE0
1FFFFFE0
0FFFFFC0
07FFFF80
03FFFE00
00FFF800
ENDCHAR
STARTCHAR 00DD
ENCODING 221
SWIDTH 632 0
DWIDTH 31 0
BBX 31 49 0 0
BITMAP
00007E00
00007C00
0000FC00
0000F800
0001F000
0001E000
0003C000
0003C000
00078000
00000000
00000000
00000000
00000000
00000000
FF8003FE
7F8003FC
3FC007F8
3FC007F8
1FC00FF0
1FE00FF0
0FE01FE0
0FF01FE0
07F01FC0
07F83FC0
03F83F80
03FC7F80
01FC7F00
00FEFE00
00FEFE00
007FFC00
007FFC00
003FF800
003FF800
001FF000
001FF000
000FE000
000FE000
000FE000
000FE000
000FE000
000FE000
000FE000
000FE000
000FE000
000FE000
000FE000
000FE000
000FE000
000FE000
ENDCHAR
STARTCHAR 00DE
ENCODING 222
SWIDTH 653 0
DWIDTH 32 0
BBX 26 35 3 0
BITMAP
FE000000
FE000000
FE000000
FE000000
FE000000
FE000000
FFFF8000
FFFFF000
FFFFFC00
FFFFFE00
FFFFFF00
FFFFFF80
FE00FF80
FE003FC0
FE001FC0
FE001FC0
FE001FC0
FE001FC0
FE001FC0
FE003FC0
FE00FF80
FFFFFF80
FFFFFF00
FFFFFE00
FFFFFC00
FFFFF000
FFFF8000
FE000000
FE000000
FE000000
FE000000
FE000000
FE000000
FE000000
FE000000
ENDCHAR
STARTCHAR 00DF
ENCODING 223
SWIDTH 591 0
DWIDTH 29 0
BBX 26 35 2 1
BITMAP
07FF8000
1FFFE000
3FFFF000
7FFFF800
7F03FC00
FE01FC00
FE01FC00
FE01FC00
FE01FC00
FE01F800
FE03F800
FE07F000
FE0FE000
FE1FC000
FE3F8000
FE7F0000
FE7F0000
FE7F0000
FE7F8000
FE3FE000
FE3FF800
FE1FFC00
FE07FE00
FE01FF00
FE007F80
FE003F80
FE001F80
FE001FC0
FEFC1FC0
FEFC1FC0
FEFE3F80
FE7FFF80
FE7FFF00
FE3FFE00
FE1FFC00
ENDCHAR
STARTCHAR 00E0
ENCODING 224
SWIDTH 551 0
DWIDTH 27 0
BBX 23 38 2 0
BITMAP
1F8000
0FC000
07C000
03E000
01F000
00F000
00F800
007800
003C00
000000
000000
000000
000000
000000
03FF80
0FFFE0
1FFFF0
3FFFF8
7F03F8
7F01FC
0001FC
0001FC
01FFFC
0FFFFC
1FFFFC
3FFFFC
7FC1FC
7F01FC
FE01FC
FE01FC
FE01FC
FE01FC
FE03FC
FF07FC
7FFFFC
3FFEFC
1FFCFC
0FF87E
ENDCHAR
STARTCHAR 00E1
ENCODING 225
SWIDTH 551 0
DWIDTH 27 0
BBX 23 38 2 0
BITMAP
0007E0
0007E0
000FC0
000F80
001F00
003E00
003C00
007800
007000
000000
000000
000000
000000
000000
03FF80
0FFFE0
1FFFF0
3FFFF8
7F03F8
7F01FC
0001FC
0001FC
01FFFC
0FFFFC
1FFFFC
3FFFFC
7FC1FC
7F01FC
FE01FC
FE01FC
FE01FC
FE01FC
FE03FC
FF07FC
7FFFFC
3FFEFC
1FFCFC
0FF87E
ENDCHAR
STARTCHAR 00E2
ENCODING 226
SWIDTH 551 0
DWIDTH 27 0
BBX 23 38 2 0
BITMAP
00FE00
01FF00
01FF00
03EF80
03CF80
0787C0
0F83C0
0F01E0
1E00E0
000000
000000
000000
000000
000000
03FF80
0FFFE0
1FFFF0
3FFFF8
7F03F8
7F01FC
0001FC
0001FC
01FFFC
0FFFFC
1FFFFC
3FFFFC
7FC1FC
7F01FC
FE01FC
FE01FC
FE01FC
FE01FC
FE03FC
FF07FC
7FFFFC
3FFEFC
1FFCFC
0FF87E
ENDCHAR
STARTCHAR 00E3
ENCODING 227
SWIDTH 551 0
DWIDTH 27 0
BBX 23 36 2 0
BITMAP
0000E0
03FFE0
07FFE0
0FFFC0
0FFF00
1C0000
000000
000000
000000
000000
000000
000000
03FF80
0FFFE0
1FFFF0
3FFFF8
7F03F8
7F01FC
0001FC
0001FC
01FFFC
0FFFFC
1FFFFC
3FFFFC
7FC1FC
7F01FC
FE01FC
FE01FC
FE01FC
FE01FC
FE03FC
FF07FC
7FFFFC
3FFEFC
1FFCFC
0FF87E
ENDCHAR
STARTCHAR 00E4
ENCODING 228
SWIDTH 551 0
DWIDTH 27 0
BBX 23 37 2 0
BITMAP
0F83E0
0F83E0
0F83E0
0F83E0
0F83E0
0F83E0
000000
000000
000000
000000
000000
000000
000000
03FF80
0FFFE0
1FFFF0
3FFFF8
7F03F8
7F01FC
0001FC
0001FC
01FFFC
0FFFFC
1FFFFC
3FFFFC
7FC1FC
7F01FC
FE01FC
FE01FC
FE01FC
FE01FC
FE03FC
FF07FC
7FFFFC
7FFEFC
1FFCFC
0FF8FE
ENDCHAR
STARTCHAR 00E5
ENCODING 229
SWIDTH 551 0
DWIDTH 27 0
BBX 23 41 2 0
BITMAP
007800
01FE00
03FF00
038700
070380
070380
070380
070380
038700
03FF00
01FE00
007800
000000
000000
000000
000000
000000
03FF80
0FFFE0
1FFFF0
3FFFF8
7F03F8
7E01FC
0001FC
0001FC
01FFFC
0FFFFC
1FFFFC
3FFFFC
7FC1FC
7F01FC
FE01FC
FE01FC
FE01FC
FE01FC
FE03FC
FF07FC
7FFFFC
7FFEFC
1FFCFC
0FF8FE
ENDCHAR
STARTCHAR 00E6
ENCODING 230
SWIDTH 877 0
DWIDTH 43 0
BBX 39 24 2 1
BITMAP
03FF01FF80
0FFFC3FFE0
1FFFE7FFF0
3FFFFFFFF8
7F01FF01F8
7F00FE00FC
0000FE00FC
0000FE00FE
01FFFFFFFE
0FFFFFFFFE
1FFFFFFFFE
3FFFFFFFFE
7FC0FE0000
7F00FE0000
FE00FE0000
FE00FE0000
FE00FE00FE
FE01FF00FC
FE01FF01FC
FF03FF83FC
7FFFCFFFF8
3FFF87FFF8
1FFF03FFE0
07FC00FFC0
ENDCHAR
STARTCHAR 00E7
ENCODING 231
SWIDTH 510 0
DWIDTH 25 0
BBX 21 36 2 -11
BITMAP
03FF80
0FFFC0
1FFFE0
3FFFF0
3F87F0
7F03F8
7E03F8
7E03F8
FE03F8
FE0000
FE0000
FE0000
FE0000
FE0000
FE0000
FE03F8
FE03F8
7E03F8
7E03F8
7F07F0
3FFFF0
1FFFE0
0FFFC0
03FF00
006000
006000
007000
007E00
007F80
0007C0
0003C0
0003C0
0207C0
03FF80
03FF00
00F800
ENDCHAR
STARTCHAR 00E8
ENCODING 232
SWIDTH 551 0
DWIDTH 27 0
BBX 23 38 2 0
BITMAP
1F8000
0FC000
07E000
03E000
01F000
00F000
00F800
007800
003C00
000000
000000
000000
000000
000000
03FF80
07FFC0
1FFFF0
1FFFF0
3F03F8
7F01F8
7E00FC
7E00FC
FE00FC
FFFFFC
FFFFFC
FFFFFE
FFFFFE
FE0000
FE0000
FE0000
FE00FC
7E01FC
7F01FC
3F83F8
3FFFF8
1FFFF0
0FFFE0
03FF80
ENDCHAR
STARTCHAR 00E9
ENCODING 233
SWIDTH 551 0
DWIDTH 27 0
BBX 23 38 2 0
BITMAP
0007E0
0007C0
000FC0
000F80
001F00
003E00
003C00
007800
007000
000000
000000
000000
000000
000000
03FF80
07FFC0
1FFFF0
1FFFF0
3F03F8
7F01F8
7E00FC
7E00FC
FE00FC
FFFFFC
FFFFFC
FFFFFE
FFFFFE
FE0000
FE0000
FE0000
FE00FC
7E01FC
7F01FC
3F83F8
3FFFF8
1FFFF0
0FFFE0
03FF80
ENDCHAR
STARTCHAR 00EA
ENCODING 234
SWIDTH 551 0
DWIDTH 27 0
BBX 23 38 2 0
BITMAP
00FE00
01FF00
01FF00
03EF80
03CF80
0787C0
0F83C0
0F01E0
1E00E0
000000
000000
000000
000000
000000
03FF80
07FFC0
1FFFF0
1FFFF0
3F03F8
7F01F8
7E00FC
7E00FC
FE00FC
FFFFFC
FFFFFC
FFFFFE
FFFFFE
FE0000
FE0000
FE0000
FE00FC
7E01FC
7F01FC
3F83F8
3FFFF8
1FFFF0
0FFFE0
03FF80
ENDCHAR
STARTCHAR 00EB
ENCODING 235
SWIDTH 551 0
DWIDTH 27 0
BBX 23 37 2 0
BITMAP
0F83E0
0F83E0
0F83E0
0F83E0
0F83E0
0F83E0
000000
000000
000000
000000
000000
000000
000000
03FF80
07FFC0
1FFFF0
1FFFF0
3F03F8
7E01F8
7E01FC
7E00FC
FE00FC
FFFFFC
FFFFFC
FFFFFE
FFFFFE
FE0000
FE0000
FE0000
FE00FC
7E01FC
7F01FC
3F03F8
3FFFF8
1FFFF0
0FFFE0
03FF80
ENDCHAR
STARTCHAR 00EC
ENCODING 236
SWIDTH 265 0
DWIDTH 13 0
BBX 11 38 -1 0
BITMAP
FC00
7E00
3E00
3F00
1F00
0F80
0780
03C0
01C0
0000
0000
0000
0000
0000
0FE0
0FE0
0FE0
0FE0
0FE0
0FE0
0FE0
0FE0
0FE0
0FE0
0FE0
0FE0
0FE0
0FE0
0FE0
0FE0
0FE0
0FE0
0FE0
0FE0
0FE0
0FE0
0FE0
0FE0
ENDCHAR
STARTCHAR 00ED
ENCODING 237
SWIDTH 224 0
DWIDTH 11 0
BBX 10 38 3 0
BITMAP
0FC0
1F80
1F00
3E00
3C00
7C00
7800
F000
E000
0000
0000
0000
0000
0000
FE00
FE00
FE00
FE00
FE00
FE00
FE00
FE00
FE00
FE00
FE00
FE00
FE00
FE00
FE00
FE00
FE00
FE00
FE00
FE00
FE00
FE00
FE00
FE00
ENDCHAR
STARTCHAR 00EE
ENCODING 238
SWIDTH 265 0
DWIDTH 13 0
BBX 15 38 -1 0
BITMAP
0FE0
1FE0
1FF0
3FF0
3CF8
7C78
783C
F03C
E01E
0000
0000
0000
0000
0000
0FE0
0FE0
0FE0
0FE0
0FE0
0FE0
0FE0
0FE0
0FE0
0FE0
0FE0
0FE0
0FE0
0FE0
0FE0
0FE0
0FE0
0FE0
0FE0
0FE0
0FE0
0FE0
0FE0
0FE0
ENDCHAR
STARTCHAR 00EF
ENCODING 239
SWIDTH 285 0
DWIDTH 14 0
BBX 16 37 -1 0
BITMAP
F81F
F81F
F81F
F81F
F81F
F81F
0000
0000
0000
0000
0000
0000
0000
0FE0
0FE0
0FE0
0FE0
0FE0
0FE0
0FE0
0FE0
0FE0
0FE0
0FE0
0FE0
0FE0
0FE0
0FE0
0FE0
0FE0
0FE0
0FE0
0FE0
0FE0
0FE0
0FE0
0FE0
ENDCHAR
STARTCHAR 00F0
ENCODING 240
SWIDTH 591 0
DWIDTH 29 0
BBX 25 36 2 0
BITMAP
00000600
01F01E00
03FC7F00
00FFF800
003FE000
003F8000
00FFC000
03FFE000
0FE3F000
1F83F800
0C01F800
0001FC00
01FFFC00
07FFFE00
0FFFFE00
1FFFFF00
3FC0FF00
7F007F00
7F007F00
7E003F80
FE003F80
FE003F80
FE003F80
FE003F80
FE003F80
FE003F80
FE003F80
FE003F80
7E003F00
7F007F00
7F007F00
3FC0FE00
1FFFFC00
0FFFFC00
07FFF000
01FFE000
ENDCHAR
STARTCHAR 00F1
ENCODING 241
SWIDTH 591 0
DWIDTH 29 0
BBX 23 36 3 0
BITMAP
000060
03F0E0
07FFE0
07FFC0
0FFFC0
0E1F80
0C0000
000000
000000
000000
000000
000000
FE7FE0
FEFFF8
FFFFF8
FFFFFC
FF83FC
FF01FE
FE00FE
FE00FE
FE00FE
FE00FE
FE00FE
FE00FE
FE00FE
FE00FE
FE00FE
FE00FE
FE00FE
FE00FE
FE00FE
FE00FE
FE00FE
FE00FE
FE00FE
FE00FE
ENDCHAR
STARTCHAR 00F2
ENCODING 242
SWIDTH 591 0
DWIDTH 29 0
BBX 25 38 2 0
BITMAP
07E00000
07E00000
03F00000
01F00000
00F80000
00780000
003C0000
001C0000
001E0000
00000000
00000000
00000000
00000000
00080000
01FFC000
07FFF000
0FFFF800
1FFFFC00
3FC1FE00
3F007E00
7F007F00
7E003F00
FE003F80
FE003F80
FE003F80
FE003F80
FE003F80
FE003F80
FE003F80
FE003F80
7E003F00
7F007F00
3F007E00
3F80FE00
1FFFFC00
0FFFF800
07FFF000
01FFC000
ENDCHAR
STARTCHAR 00F3
ENCODING 243
SWIDTH 591 0
DWIDTH 29 0
BBX 25 38 2 0
BITMAP
0003F000
0003E000
0007E000
0007C000
000F8000
000F0000
001E0000
001C0000
00380000
00000000
00000000
00000000
00000000
00080000
01FFC000
07FFF000
0FFFF800
1FFFFC00
3FC1FE00
3F007E00
7F007F00
7E003F00
FE003F80
FE003F80
FE003F80
FE003F80
FE003F80
FE003F80
FE003F80
FE003F80
7E003F00
7F007F00
3F007E00
3F80FE00
1FFFFC00
0FFFF800
07FFF000
01FFC000
ENDCHAR
STARTCHAR 00F4
ENCODING 244
SWIDTH 591 0
DWIDTH 29 0
BBX 25 38 2 0
BITMAP
007F0000
00FF8000
00FF8000
01F7C000
01F3C000
03E3E000
03C1E000
0780F000
07007000
00000000
00000000
00000000
00000000
00080000
01FFC000
07FFF000
0FFFF800
1FFFFC00
3FC1FE00
3F007E00
7F007F00
7E003F00
FE003F80
FE003F80
FE003F80
FE003F80
FE003F80
FE003F80
FE003F80
FE003F80
7E003F00
7F007F00
3F007E00
3F80FE00
1FFFFC00
0FFFF800
07FFF000
01FFC000
ENDCHAR
STARTCHAR 00F5
ENCODING 245
SWIDTH 591 0
DWIDTH 29 0
BBX 25 36 2 0
BITMAP
00007000
01FFF000
03FFE000
07FFE000
07FF8000
07000000
00000000
00000000
00000000
00000000
00000000
00080000
01FFC000
07FFF000
0FFFF800
1FFFFC00
3FC1FE00
3F007E00
7F007F00
7E003F00
FE003F80
FE003F80
FE003F80
FE003F80
FE003F80
FE003F80
FE003F80
FE003F80
7E003F00
7F007F00
3F007E00
3F80FE00
1FFFFC00
0FFFF800
07FFF000
01FFC000
ENDCHAR
STARTCHAR 00F6
ENCODING 246
SWIDTH 591 0
DWIDTH 29 0
BBX 25 37 2 0
BITMAP
07C1F000
07C1F000
07C1F000
07C1F000
07C1F000
07C1F000
00000000
00000000
00000000
00000000
00000000
00000000
00080000
01FFC000
07FFF000
0FFFF800
1FFFFC00
3FC1FE00
3F007E00
7F007F00
7E003F00
FE003F80
FE003F80
FE003F80
FE003F80
FE003F80
FE003F80
FE003F80
FE003F80
7E003F00
7F007F00
3F007E00
3F80FE00
1FFFFC00
0FFFF800
07FFF000
01FFC000
ENDCHAR
STARTCHAR 00F7
ENCODING 247
SWIDTH 1000 0
DWIDTH 49 0
BBX 29 21 10 4
BITMAP
00078000
000FC000
000FC000
000FC000
00078000
00000000
00000000
00000000
00000000
FFFFFFF8
FFFFFFF8
FFFFFFF8
00000000
00000000
00000000
00078000
000FC000
000FC000
000FC000
000FC000
00078000
ENDCHAR
STARTCHAR 00F8
ENCODING 248
SWIDTH 591 0
DWIDTH 29 0
BBX 26 32 1 -4
BITMAP
00000300
000003C0
00000780
00000F80
00FFFF00
03FFFE00
07FFFC00
0FFFFE00
1FE0FF00
1F80FF00
3F81FF80
3F03DF80
7F079FC0
7F079FC0
7F0F1FC0
7F1E1FC0
7F3C1FC0
7F3C1FC0
7F781FC0
7FF01FC0
3FE01F80
3FE03F80
1FC03F00
1FE0FF00
0FFFFE00
1FFFFC00
1FFFF800
3CFFE000
78000000
F8000000
70000000
20000000
ENDCHAR
STARTCHAR 00F9
ENCODING 249
SWIDTH 591 0
DWIDTH 29 0
BBX 23 38 3 0
BITMAP
1FC000
0FC000
07E000
03E000
01F000
00F000
007800
007800
003C00
000000
000000
000000
000000
000000
FE00FE
FE00FE
FE00FE
FE00FE
FE00FE
FE00FE
FE00FE
FE00FE
FE00FE
FE00FE
FE00FE
FE00FE
FE00FE
FE00FE
FE00FE
FE00FE
FE00FE
FE00FE
FF01FE
FF03FE
7FFFFE
7FFFFE
3FFEFE
0FF8FE
ENDCHAR
STARTCHAR 00FA
ENCODING 250
SWIDTH 591 0
DWIDTH 29 0
BBX 23 38 3 0
BITMAP
0007E0
000FC0
000F80
001F80
001F00
003E00
003C00
007800
007000
000000
000000
000000
000000
000000
FE00FE
FE00FE
FE00FE
FE00FE
FE00FE
FE00FE
FE00FE
FE00FE
FE00FE
FE00FE
FE00FE
FE00FE
FE00FE
FE00FE
FE00FE
FE00FE
FE00FE
FE00FE
FF01FE
FF03FE
7FFFFE
7FFFFE
3FFEFE
0FF8FE
ENDCHAR
STARTCHAR 00FB
ENCODING 251
SWIDTH 591 0
DWIDTH 29 0
BBX 23 38 3 0
BITMAP
00FE00
01FF00
01FF00
03EF80
03CF80
07C7C0
0783C0
0F01E0
0E00E0
000000
000000
000000
000000
000000
FE00FE
FE00FE
FE00FE
FE00FE
FE00FE
FE00FE
FE00FE
FE00FE
FE00FE
FE00FE
FE00FE
FE00FE
FE00FE
FE00FE
FE00FE
FE00FE
FE00FE
FE00FE
FF01FE
FF03FE
7FFFFE
7FFFFE
3FFEFE
0FF8FE
ENDCHAR
STARTCHAR 00FC
ENCODING 252
SWIDTH 591 0
DWIDTH 29 0
BBX 23 37 3 0
BITMAP
0F83E0
0F83E0
0F83E0
0F83E0
0F83E0
0F83E0
000000
000000
000000
000000
000000
000000
000000
FE00FE
FE00FE
FE00FE
FE00FE
FE00FE
FE00FE
FE00FE
FE00FE
FE00FE
FE00FE
FE00FE
FE00FE
FE00FE
FE00FE
FE00FE
FE00FE
FE00FE
FE00FE
FF01FE
FF03FE
7FFFFE
7FFFFE
3FFEFE
0FF8FE
ENDCHAR
STARTCHAR 00FD
ENCODING 253
SWIDTH 551 0
DWIDTH 27 0
BBX 25 48 1 -10
BITMAP
0001FC00
0001F800
0001F000
0003E000
0003C000
0007C000
00078000
000F0000
000E0000
00000000
00000000
00000000
00000000
00000000
FF003F80
7F003F80
7F003F80
7F807F00
3F807F00
3F807F00
1FC0FE00
1FC0FE00
1FE0FE00
0FE1FC00
0FE1FC00
07F1F800
07F3F800
07F3F800
03FBF000
03FFF000
01FFF000
01FFE000
01FFE000
00FFE000
00FFC000
007FC000
007F8000
007F8000
003F8000
007F0000
007F0000
107F0000
78FE0000
FFFE0000
FFFC0000
7FFC0000
3FF80000
0FC00000
ENDCHAR
STARTCHAR 00FE
ENCODING 254
SWIDTH 612 0
DWIDTH 30 0
BBX 25 45 3 -10
BITMAP
FE000000
FE000000
FE000000
FE000000
FE000000
FE000000
FE000000
FE000000
FE000000
FE000000
FE000000
FE7FC000
FEFFF000
FFFFF800
FFFFFC00
FFC1FE00
FF80FE00
FF007F00
FE007F00
FE003F00
FE003F80
FE003F80
FE003F80
FE003F80
FE003F80
FE003F00
FE007F00
FE007F00
FF007F00
FF00FE00
FF81FE00
FFFFFC00
FFFFF800
FFFFF000
FEFFE000
FE000000
FE000000
FE000000
FE000000
FE000000
FE000000
FE000000
FE000000
FE000000
FE000000
ENDCHAR
STARTCHAR 00FF
ENCODING 255
SWIDTH 510 0
DWIDTH 25 0
BBX 25 46 0 -10
BITMAP
07C1F000
07C1F000
07C1F000
07C1F000
07C1F000
07C1F000
00000000
00000000
00000000
00000000
00000000
00000000
FF003F80
7F003F00
7F007F00
7F807F00
3F807E00
3F80FE00
1FC0FE00
1FC0FC00
1FC1FC00
0FE1FC00
0FE1F800
07E3F800
07F3F800
07F3F000
03FFF000
03FFF000
01FFE000
01FFE000
01FFC000
00FFC000
00FFC000
007F8000
007F8000
007F8000
003F0000
007F0000
007F0000
007E0000
00FE0000
00FE0000
01FC0000
01FC0000
01FC0000
03F80000
ENDCHAR
STARTCHAR 0131
ENCODING 305
SWIDTH 265 0
DWIDTH 13 0
BBX 7 24 3 0
BITMAP
FE
FE
FE
FE
FE
FE
FE
FE
FE
FE
FE
FE
FE
FE
FE
FE
FE
FE
FE
FE
FE
FE
FE
FE
ENDCHAR
STARTCHAR 0141
ENCODING 321
SWIDTH 632 0
DWIDTH 31 0
BBX 28 35 1 0
BITMAP
0FE00000
0FE00000
0FE00000
0FE00000
0FE00000
0FE18000
0FE38000
0FE78000
0FEF8000
0FFF8000
0FFF0000
0FFE0000
0FFC0000
0FF80000
0FF00000
0FE00000
0FE00000
1FE00000
3FE00000
7FE00000
FFE00000
FFE00000
FFE00000
EFE00000
CFE00000
8FE00000
0FE00000
0FE00000
0FE00000
0FFFFFF0
0FFFFFF0
0FFFFFF0
0FFFFFF0
0FFFFFF0
0FFFFFF0
ENDCHAR
STARTCHAR 0142
ENCODING 322
SWIDTH 346 0
DWIDTH 17 0
BBX 15 35 1 0
BITMAP
0FE0
0FE0
0FE0
0FE0
0FE0
0FE0
0FE0
0FE2
0FE6
0FEE
0FFE
0FFE
0FFE
0FFC
0FF8
0FF0
1FE0
3FE0
7FE0
FFE0
FFE0
FFE0
EFE0
CFE0
8FE0
0FE0
0FE0
0FE0
0FE0
0FE0
0FE0
0FE0
0FE0
0FE0
0FE0
ENDCHAR
STARTCHAR 0152
ENCODING 338
SWIDTH 1040 0
DWIDTH 51 0
BBX 45 35 3 1
BITMAP
003FFFFFFFF8
00FFFFFFFFF8
03FFFFFFFFF8
07FFFFFFFFF8
0FFFFFFFFFF8
1FFFFFFFFFF8
1FF007F00000
3FC007F00000
3F8007F00000
7F8007F00000
7F0007F00000
7F0007F00000
FF0007F00000
FE0007F00000
FE0007FFFFF0
FE0007FFFFF0
FE0007FFFFF0
FE0007FFFFF0
FE0007FFFFF0
FE0007F00000
FE0007F00000
FE0007F00000
FF0007F00000
7F0007F00000
7F0007F00000
7F8007F00000
3F8007F00000
3FC007F00000
1FF007F00000
1FFFFFFFFFF8
0FFFFFFFFFF8
07FFFFFFFFF8
03FFFFFFFFF8
00FFFFFFFFF8
003FFFFFFFF8
ENDCHAR
STARTCHAR 0153
ENCODING 339
SWIDTH 897 0
DWIDTH 44 0
BBX 40 24 2 1
BITMAP
01FF80FFC0
07FFE3FFF0
0FFFF7FFF8
1FFFFFFFFC
3FC1FFC0FC
3F00FF807E
7F007F007E
7E007F007E
FE003F007F
FE003FFFFF
FE003FFFFF
FE003FFFFF
FE003FFFFF
FE003F0000
FE003F0000
FE003F0000
7E007F007F
7F007F807F
3F00FF807E
3FC1FFC0FE
1FFFFFFFFC
0FFFFFFFFC
07FFE7FFF8
01FF81FFE0
ENDCHAR
STARTCHAR 0160
ENCODING 352
SWIDTH 693 0
DWIDTH 34 0
BBX 28 49 3 0
BITMAP
03C03C00
01E07800
01F07800
00F0F000
00F9F000
007FE000
007FE000
003FC000
003FC000
00000000
00000000
00000000
00000000
00000000
007FF800
01FFFE00
07FFFF00
0FFFFF80
1FFFFFC0
3FE03FC0
3F801FE0
3F000FE0
7F000FE0
7F000000
7F000000
7F800000
3FC00000
3FF80000
1FFF0000
1FFFF000
07FFFC00
03FFFF00
007FFF80
000FFFC0
0000FFE0
00001FE0
00000FF0
FE0007F0
FE0007F0
FE0007F0
FF0007F0
7F000FF0
7F801FE0
3FFFFFE0
3FFFFFC0
1FFFFF80
0FFFFF00
03FFFC00
00FFF000
ENDCHAR
STARTCHAR 0161
ENCODING 353
SWIDTH 510 0
DWIDTH 25 0
BBX 21 38 2 0
BITMAP
1E03C0
1E03C0
0F0780
0F8F80
07DF00
07FF00
03FE00
03FE00
01FC00
000000
000000
000000
000000
000000
07FF80
1FFFC0
3FFFE0
7FFFF0
7F07F0
FE03F8
FE03F8
FE0000
7F8000
7FF800
3FFF80
1FFFC0
07FFF0
00FFF0
000FF8
0003F8
FE03F8
FE03F8
FE03F8
7F07F0
7FFFF0
3FFFE0
1FFFC0
0FFF00
ENDCHAR
STARTCHAR 0178
ENCODING 376
SWIDTH 632 0
DWIDTH 31 0
BBX 29 47 1 0
BITMAP
01F07C00
01F07C00
01F07C00
01F07C00
01F07C00
01F07C00
00000000
00000000
00000000
00000000
00000000
00000000
FF0007F8
FF0007F8
7F800FF0
7F800FF0
3FC01FE0
3FC01FE0
1FE03FC0
1FE03FC0
0FF07F80
0FF07F80
07F0FF00
07F8FF00
03F8FE00
01FDFC00
01FDFC00
00FFF800
00FFF800
007FF000
007FF000
003FE000
003FE000
001FC000
001FC000
001FC000
001FC000
001FC000
001FC000
001FC000
001FC000
001FC000
001FC000
001FC000
001FC000
001FC000
001FC000
ENDCHAR
STARTCHAR 017D
ENCODING 381
SWIDTH 632 0
DWIDTH 31 0
BBX 27 49 2 0
BITMAP
07803800
03C07000
03C0F000
01E1E000
01F3E000
00FFC000
00FFC000
007F8000
007F8000
00000000
00000000
00000000
00000000
00000000
7FFFFFC0
7FFFFFC0
7FFFFFC0
7FFFFFC0
7FFFFFC0
7FFFFFC0
00007FC0
0000FF80
0000FF00
0001FF00
0003FE00
0007FC00
000FF800
000FF800
001FF000
003FE000
007FC000
007F8000
00FF8000
01FF0000
03FE0000
07FC0000
07F80000
0FF80000
1FF00000
3FE00000
3FC00000
7FC00000
FF800000
FFFFFFE0
FFFFFFE0
FFFFFFE0
FFFFFFE0
FFFFFFE0
FFFFFFE0
ENDCHAR
STARTCHAR 017E
ENCODING 382
SWIDTH 489 0
DWIDTH 24 0
BBX 20 38 2 0
BITMAP
3C03C0
1E0780
1F0780
0F8F00
0F9F00
07FE00
07FE00
03FC00
03FC00
000000
000000
000000
000000
000000
FFFFF0
FFFFF0
FFFFF0
FFFFF0
0007F0
000FF0
001FE0
003FC0
007F80
00FF00
01FE00
03FC00
03F800
07F000
0FF000
1FE000
3FC000
7F8000
FF0000
FE0000
FFFFF0
FFFFF0
FFFFF0
FFFFF0
ENDCHAR
STARTCHAR 0192
ENCODING 402
SWIDTH 530 0
DWIDTH 26 0
BBX 31 45 -4 -9
BITMAP
000003FE
00000FFE
00001FFC
00001FFC
00003F80
00003F00
00007E00
00007E00
00007E00
0000FC00
0000FC00
001FFFF0
001FFFE0
003FFFE0
003FFFE0
0001F800
0003F000
0003F000
0003F000
0007E000
0007E000
0007E000
0007E000
000FC000
000FC000
000FC000
001F8000
001F8000
001F8000
001F8000
003F0000
003F0000
003F0000
007E0000
007E0000
007E0000
007C0000
00FC0000
00FC0000
01F80000
63F80000
7FF00000
7FE00000
FFC00000
7F000000
ENDCHAR
STARTCHAR 02C6
ENCODING 710
SWIDTH 326 0
DWIDTH 16 0
BBX 15 9 0 29
BITMAP
0FF0
0FF0
1FF8
1FF8
3E7C
3C7C
783C
781E
F00E
ENDCHAR
STARTCHAR 02C7
ENCODING 711
SWIDTH 326 0
DWIDTH 16 0
BBX 15 9 0 29
BITMAP
F00E
781E
783C
3C7C
3E7C
1FF8
1FF8
0FF0
0FF0
ENDCHAR
STARTCHAR 02D8
ENCODING 728
SWIDTH 326 0
DWIDTH 16 0
BBX 16 8 0 29
BITMAP
E007
E007
F00F
7C3E
7FFE
3FFC
1FF8
07E0
ENDCHAR
STARTCHAR 02D9
ENCODING 729
SWIDTH 122 0
DWIDTH 6 0
BBX 6 6 0 29
BITMAP
FC
FC
FC
FC
FC
FC
ENDCHAR
STARTCHAR 02DA
ENCODING 730
SWIDTH 244 0
DWIDTH 12 0
BBX 12 12 0 29
BITMAP
0F00
3FC0
7FE0
70E0
E070
E070
E070
E070
70E0
7FE0
3FC0
0F00
ENDCHAR
STARTCHAR 02DB
ENCODING 731
SWIDTH 204 0
DWIDTH 10 0
BBX 8 11 0 -11
BITMAP
1C
38
38
70
F0
F0
F8
FF
FF
7F
3F
ENDCHAR
STARTCHAR 02DC
ENCODING 732
SWIDTH 326 0
DWIDTH 16 0
BBX 16 7 0 29
BITMAP
0007
1F0F
3FFE
7FFE
7FFC
E0F8
E000
ENDCHAR
STARTCHAR 02DD
ENCODING 733
SWIDTH 326 0
DWIDTH 16 0
BBX 15 9 0 29
BITMAP
3F3E
3E3E
3C3C
7C7C
7878
7870
7070
E0E0
E0C0
ENDCHAR
STARTCHAR 0394
ENCODING 916
SWIDTH 632 0
DWIDTH 31 0
BBX 30 35 1 0
BITMAP
00010000
00010000
00038000
00038000
0007C000
0007C000
000FC000
000FE000
000FE000
001FF000
0019F000
0039F800
0031F800
0070F800
0060FC00
00E07C00
00C07E00
01C07E00
01803E00
03803F00
03001F00
03001F80
07001F80
06000F80
0E000FC0
0C0007C0
1C0007E0
180007E0
380003E0
300003F0
700001F0
600001F8
FFFFFFF8
FFFFFFF8
FFFFFFFC
ENDCHAR
STARTCHAR 03A9
ENCODING 937
SWIDTH 816 0
DWIDTH 40 0
BBX 36 35 2 0
BITMAP
0007FE0000
003FFFC000
00F801F000
01E000FC00
07C0003E00
0F80003F00
0F80001F00
1F00000F80
3F00000FC0
3F00000FC0
3E000007C0
7E000007E0
7E000007E0
7E000007E0
7E000007E0
7E000007E0
7E000007E0
7E000007E0
7E000007C0
3F00000FC0
3F00000FC0
1F00000F80
1F80001F80
0F80001F00
07C0003E00
03E0007C00
00F001F000
803C07C010
800C070010
C00C070030
FFFC07FFF0
FFFE07FFF0
FFFE07FFF0
FFFE07FFF0
FFFE07FFF0
ENDCHAR
STARTCHAR 03BC
ENCODING 956
SWIDTH 653 0
DWIDTH 32 0
BBX 28 35 3 -10
BITMAP
FE00FE00
FE00FE00
FE00FE00
FE00FE00
FE00FE00
FE00FE00
FE00FE00
FE00FE00
FE00FE00
FE00FE00
FE00FE00
FE00FE00
FE00FE00
FE00FE00
FE00FE00
FE00FE00
FE00FE00
FE00FE00
FE00FE00
FE01FE00
FF03FF00
FFFFFFB0
FFFFFFF0
FFFF3FF0
FFFE3FF0
FE7C0FE0
FE000000
FE000000
FE000000
FE000000
FE000000
FE000000
FE000000
FE000000
FE000000
ENDCHAR
STARTCHAR 03C0
ENCODING 960
SWIDTH 571 0
DWIDTH 28 0
BBX 26 26 1 -1
BITMAP
0FFFFFC0
1FFFFFC0
3FFFFFC0
7FFFFFC0
71C0E000
C1C0E000
81C0E000
81C0E000
01C0E000
01C1E000
03C1E000
03C1E000
03C1E000
0381E000
0381E000
0381E000
0381E000
0781E040
0781E040
0F81E0C0
1F01F0C0
1F00FF80
3F00FF80
3F00FF00
3E007E00
1C003C00
ENDCHAR
STARTCHAR 2013
ENCODING 8211
SWIDTH 510 0
DWIDTH 25 0
BBX 25 5 0 10
BITMAP
FFFFFF80
FFFFFF80
FFFFFF80
FFFFFF80
FFFFFF80
ENDCHAR
STARTCHAR 2014
ENCODING 8212
SWIDTH 1000 0
DWIDTH 49 0
BBX 49 5 0 10
BITMAP
FFFFFFFFFFFF80
FFFFFFFFFFFF80
FFFFFFFFFFFF80
FFFFFFFFFFFF80
FFFFFFFFFFFF80
ENDCHAR
STARTCHAR 2018
ENCODING 8216
SWIDTH 285 0
DWIDTH 14 0
BBX 10 12 2 23
BITMAP
07C0
07C0
0F80
0F80
1F80
1F00
3F00
3F00
7E00
7E00
FE00
FC00
ENDCHAR
STARTCHAR 2019
ENCODING 8217
SWIDTH 285 0
DWIDTH 14 0
BBX 10 12 2 23
BITMAP
1FC0
1F80
1F80
3F00
3F00
3E00
7E00
7C00
7C00
F800
F800
F000
ENDCHAR
STARTCHAR 201A
ENCODING 8218
SWIDTH 285 0
DWIDTH 14 0
BBX 10 12 2 -6
BITMAP
1FC0
1F80
1F80
3F00
3F00
3E00
7E00
7C00
7C00
F800
F800
F000
ENDCHAR
STARTCHAR 201C
ENCODING 8220
SWIDTH 469 0
DWIDTH 23 0
BBX 20 12 2 23
BITMAP
07C1F0
07C3E0
0F83E0
0F83E0
1F87C0
1F07C0
3F0FC0
3F0FC0
7E1F80
7E1F80
FE3F80
FC3F00
ENDCHAR
STARTCHAR 201D
ENCODING 8221
SWIDTH 469 0
DWIDTH 23 0
BBX 20 12 2 23
BITMAP
1FC7F0
1F87E0
1F8FE0
3F0FC0
3F0FC0
3E1F80
7E1F80
7C1F00
7C3F00
F83E00
F83E00
F03C00
ENDCHAR
STARTCHAR 201E
ENCODING 8222
SWIDTH 489 0
DWIDTH 24 0
BBX 20 12 2 -6
BITMAP
1FC7F0
1F87E0
1F8FE0
3F0FC0
3F0FC0
3E1F80
7E1F80
7C1F00
7C1F00
F83E00
F83E00
F03C00
ENDCHAR
STARTCHAR 2020
ENCODING 8224
SWIDTH 551 0
DWIDTH 27 0
BBX 23 43 2 -8
BITMAP
00FC00
00FC00
00FC00
00FC00
00FC00
00FC00
00FC00
00FC00
00FC00
00FC00
00FC00
FFFFFE
FFFFFE
FFFFFE
FFFFFE
FFFFFE
00FC00
00FC00
00FC00
00FC00
00FC00
00FC00
00FC00
00FC00
00FC00
00FC00
00FC00
00FC00
00FC00
00FC00
00FC00
00FC00
00FC00
00FC00
00FC00
00FC00
00FC00
00FC00
00FC00
00FC00
00FC00
00FC00
00FC00
ENDCHAR
STARTCHAR 2021
ENCODING 8225
SWIDTH 530 0
DWIDTH 26 0
BBX 22 43 2 -8
BITMAP
00FC00
00FC00
00FC00
00FC00
00FC00
00FC00
00FC00
00FC00
00FC00
00FC00
00FC00
FFFFFC
FFFFFC
FFFFFC
FFFFFC
FFFFFC
00FC00
00FC00
00FC00
00FC00
00FC00
00FC00
00FC00
00FC00
00FC00
00FC00
00FC00
FFFFFC
FFFFFC
FFFFFC
FFFFFC
FFFFFC
00FC00
00FC00
00FC00
00FC00
00FC00
00FC00
00FC00
00FC00
00FC00
00FC00
00FC00
ENDCHAR
STARTCHAR 2022
ENCODING 8226
SWIDTH 306 0
DWIDTH 15 0
BBX 11 11 2 11
BITMAP
1F00
3F80
7FC0
FFE0
FFE0
FFE0
FFE0
FFE0
7FC0
3F80
1F00
ENDCHAR
STARTCHAR 2026
ENCODING 8230
SWIDTH 1000 0
DWIDTH 49 0
BBX 45 6 2 0
BITMAP
FE001FC003F8
FE001FC003F8
FE001FC003F8
FE001FC003F8
FE001FC003F8
FE001FC003F8
ENDCHAR
STARTCHAR 2030
ENCODING 8240
SWIDTH 1408 0
DWIDTH 69 0
BBX 67 37 1 -1
BITMAP
00000001F000000000
03F80003E000000000
0FFE0003E000000000
1FFF0007C000000000
3E0F80078000000000
7C07C00F8000000000
7C07C01F0000000000
F803E01F0000000000
F803E03E0000000000
F803E03C0000000000
F803E07C0000000000
F803E0780000000000
F803E0F80000000000
F803E1F00000000000
7C07C1F00000000000
7C07C3E00000000000
3E0F83C00000000000
1FFF07C0FE0003F800
0FFE0F83FF800FFE00
03F80F87FFC01FFF00
00001F0F83E03E0F80
00001E1F01F07C07C0
00003E1F01F07C07C0
00003C3E00F0F803C0
00007C3E00F8F803E0
0000F83E00F8F803E0
0000F83E00F8F803E0
0001F03E00F8F803E0
0001E03E00F8F803E0
0003E03E00F8F803E0
0007C01F01F07C07C0
0007C01F01F07C07C0
000F800F83E03E0F80
000F000FFFE03FFF80
001F0007FFC01FFF00
001E0001FF0007FC00
003E00001000004000
ENDCHAR
STARTCHAR 2039
ENCODING 8249
SWIDTH 367 0
DWIDTH 18 0
BBX 12 19 3 3
BITMAP
07F0
07E0
0FE0
0FC0
1FC0
3F80
3F80
7F00
7F00
FF00
7F00
7F00
3F80
3F80
1FC0
0FC0
0FE0
07E0
07F0
ENDCHAR
STARTCHAR 203A
ENCODING 8250
SWIDTH 367 0
DWIDTH 18 0
BBX 12 19 3 3
BITMAP
FE00
7E00
7F00
3F80
3F80
1FC0
1FC0
0FE0
0FE0
07F0
0FE0
0FE0
1FC0
1FC0
3F80
3F80
7F00
7E00
FE00
ENDCHAR
STARTCHAR 2044
ENCODING 8260
SWIDTH 571 0
DWIDTH 28 0
BBX 25 37 2 -1
BITMAP
00000F80
00000F00
00001F00
00003E00
00003E00
00007C00
00007C00
0000F800
0000F000
0001F000
0003E000
0003E000
0007C000
0007C000
000F8000
000F0000
001F0000
003E0000
003E0000
007C0000
007C0000
00F80000
00F00000
01F00000
03E00000
03E00000
07C00000
07C00000
0F800000
0F000000
1F000000
3E000000
3E000000
7C000000
7C000000
F8000000
F0000000
ENDCHAR
STARTCHAR 2122
ENCODING 8482
SWIDTH 653 0
DWIDTH 32 0
BBX 28 13 2 22
BITMAP
FFE7C1F0
FFE7C1F0
0E07C3F0
0E07C3F0
0E07E370
0E076370
0E076770
0E077670
0E077670
0E073E70
0E073E70
0E073C70
0E071C70
ENDCHAR
STARTCHAR 2202
ENCODING 8706
SWIDTH 510 0
DWIDTH 25 0
BBX 22 39 2 -1
BITMAP
0FF000
3FFC00
1E1F00
100380
0001C0
0000E0
0000E0
000070
000070
000078
000038
000038
000038
00003C
00003C
00003C
00003C
01F83C
07FE3C
1F833C
3F01FC
3E00FC
7C007C
780078
F80078
F80078
F000F8
F000F8
F000F0
F000F0
F001F0
F001E0
F001E0
7003C0
7803C0
380780
1C0F00
0FFE00
03F000
ENDCHAR
STARTCHAR 220F
ENCODING 8719
SWIDTH 857 0
DWIDTH 42 0
BBX 40 43 1 -5
BITMAP
FFFFFFFFFF
1FFFFFFFF8
0FFFFFFFF0
07E00007F0
07E00007E0
07E00007E0
07E00007E0
07E00007E0
07E00007E0
07E00007E0
07E00007E0
07E00007E0
07E00007E0
07E00007E0
07E00007E0
07E00007E0
07E00007E0
07E00007E0
07E00007E0
07E00007E0
07E00007E0
07E00007E0
07E00007E0
07E00007E0
07E00007E0
07E00007E0
07E00007E0
07E00007E0
07E00007E0
07E00007E0
07E00007E0
07E00007E0
07E00007E0
07E00007E0
07E00007E0
07E00007E0
07E00007E0
07E00007E0
07E00007E0
07E00007E0
07F00007F0
1FF8001FF8
FFFF00FFFF
ENDCHAR
STARTCHAR 2211
ENCODING 8721
SWIDTH 734 0
DWIDTH 36 0
BBX 34 43 1 -5
BITMAP
FFFFFFFE00
7FFFFFFE00
3F8003FE00
1F80001E00
1FC0000E00
0FE0000600
07F0000200
03F0000200
03F8000000
01FC000000
00FE000000
007E000000
007F000000
003F800000
001FC00000
000FC00000
0007E00000
0007F00000
0003F80000
0001FC0000
0000FC0000
0000F80000
0000780000
0000700000
0000E00000
0001C00000
0003800000
0007000000
000E000000
000E000000
001C000000
0038000000
0070000040
00E00000C0
01C00000C0
0380000180
0780000380
0700000F80
0FFFFFFF80
1FFFFFFF80
3FFFFFFF00
7FFFFFFF00
FFFFFFFF00
ENDCHAR
STARTCHAR 2212
ENCODING 8722
SWIDTH 1000 0
DWIDTH 49 0
BBX 29 3 10 13
BITMAP
FFFFFFF8
FFFFFFF8
FFFFFFF8
ENDCHAR
STARTCHAR 221A
ENCODING 8730
SWIDTH 571 0
DWIDTH 28 0
BBX 27 34 1 0
BITMAP
000001E0
00000180
00000300
00000300
00000300
00000300
00000600
00000600
00000600
00000600
04000C00
1C000C00
7E000C00
EE001800
0F001800
07001800
07801800
03803000
01C03000
01C03000
00E03000
00E06000
00706000
00706000
0038C000
0038C000
001CC000
001EC000
000F8000
000F8000
00078000
00078000
00030000
00030000
ENDCHAR
STARTCHAR 221E
ENCODING 8734
SWIDTH 1000 0
DWIDTH 49 0
BBX 32 14 8 8
BITMAP
02000040
1FE003F8
3FF00FFC
783C1E1E
701E7807
E007F007
E003E003
E003C003
E003E003
E00F7007
701E3807
787C1F1E
3FF00FFC
0FC003F8
ENDCHAR
STARTCHAR 222B
ENCODING 8747
SWIDTH 469 0
DWIDTH 23 0
BBX 20 46 2 -10
BITMAP
0007E0
000FF0
001FF0
0039F0
0030E0
003000
007000
007000
007000
007000
007000
007000
00F000
00F000
00F000
00F000
00F000
00F000
00F000
00F000
00F000
00F000
00F000
00F000
00F000
00F000
00F000
00F000
00F000
00F000
00F000
00F000
00E000
00E000
00E000
01E000
01E000
01E000
01E000
01C000
01C000
F1C000
FD8000
FF8000
FF0000
7C0000
ENDCHAR
STARTCHAR 2248
ENCODING 8776
SWIDTH 1000 0
DWIDTH 49 0
BBX 29 14 10 8
BITMAP
0FF00008
3FFE0038
7FFFC078
F01FFFF0
C003FFE0
80007F80
00000000
00000000
07E00008
3FFC0018
7FFFC078
F01FFFF0
C003FFE0
80007F80
ENDCHAR
STARTCHAR 2260
ENCODING 8800
SWIDTH 1000 0
DWIDTH 49 0
BBX 29 22 10 4
BITMAP
00000180
000003C0
00000780
00000F00
00001E00
FFFFFFF8
FFFFFFF8
FFFFFFF8
0001E000
0003C000
00078000
000F0000
001E0000
003C0000
FFFFFFF8
FFFFFFF8
FFFFFFF8
03C00000
07800000
0F000000
1E000000
0C000000
ENDCHAR
STARTCHAR 2264
ENCODING 8804
SWIDTH 1000 0
DWIDTH 49 0
BBX 29 27 10 1
BITMAP
00000038
000001F8
00000FF8
0000FFC0
0007FC00
003FE000
01FF0000
0FF00000
7F800000
FC000000
F0000000
FE000000
3FC00000
07FC0000
00FF8000
001FF000
0001FF00
00003FE0
000007F8
000000F8
00000018
00000000
00000000
00000000
FFFFFFF8
FFFFFFF8
FFFFFFF8
ENDCHAR
STARTCHAR 2265
ENCODING 8805
SWIDTH 1000 0
DWIDTH 49 0
BBX 29 27 10 1
BITMAP
E0000000
FC000000
FF800000
1FF80000
01FF0000
003FE000
0007FC00
00007F80
00000FF0
000001F8
00000078
000003F8
00001FE0
0001FF00
000FF800
007FC000
07FC0000
3FE00000
FF000000
F8000000
C0000000
00000000
00000000
00000000
FFFFFFF8
FFFFFFF8
FFFFFFF8
ENDCHAR
STARTCHAR 25CA
ENCODING 9674
SWIDTH 530 0
DWIDTH 26 0
BBX 22 38 2 0
BITMAP
007800
007800
00FC00
00EE00
01CE00
01C700
038700
038380
070380
0701C0
0E01C0
0E00E0
1C00E0
1C0070
380070
700038
700038
E0001C
E0001C
E0001C
70001C
700038
380038
380070
1C0070
1C00E0
0E00E0
0E01C0
0701C0
070380
038380
038700
01C700
01CE00
00EE00
00FC00
007800
007800
ENDCHAR
STARTCHAR FB01
ENCODING 64257
SWIDTH 653 0
DWIDTH 32 0
BBX 28 35 1 1
BITMAP
01FF8FF0
03FF8FF0
07FF8FF0
07FF8FF0
07F00FF0
0FE00FF0
0FE00000
0FE00000
0FE00000
0FE00000
0FE00000
FFFF0FE0
FFFF0FE0
FFFF0FE0
FFFF0FE0
0FE00FE0
0FE00FE0
0FE00FE0
0FE00FE0
0FE00FE0
0FE00FE0
0FE00FE0
0FE00FE0
0FE00FE0
0FE00FE0
0FE00FE0
0FE00FE0
0FE00FE0
0FE00FE0
0FE00FE0
0FE00FE0
0FE00FE0
0FE00FE0
0FE00FE0
0FE00FE0
ENDCHAR
STARTCHAR FB02
ENCODING 64258
SWIDTH 632 0
DWIDTH 31 0
BBX 27 35 1 1
BITMAP
01FF8FE0
03FF8FE0
07FF8FE0
07FF8FE0
07F00FE0
0FE00FE0
0FE00FE0
0FE00FE0
0FE00FE0
0FE00FE0
0FE00FE0
FFFF0FE0
FFFF0FE0
FFFF0FE0
FFFF0FE0
0FE00FE0
0FE00FE0
0FE00FE0
0FE00FE0
0FE00FE0
0FE00FE0
0FE00FE0
0FE00FE0
0FE00FE0
0FE00FE0
0FE00FE0
0FE00FE0
0FE00FE0
0FE00FE0
0FE00FE0
0FE00FE0
0FE00FE0
0FE00FE0
0FE00FE0
0FE00FE0
ENDCHAR
ENDFONT
